M48
;DRILL file {KiCad (5.0.0)} date 03/15/20 13:15:35
;FORMAT={-:-/ absolute / metric / decimal}
FMAT,2
METRIC,TZ
T1C0.400
T2C0.650
T3C0.900
T4C1.000
T5C1.100
T6C1.200
%
G90
G05
M71
T1
X121.25Y-100.75
X122.Y-98.
X122.75Y-90.25
X123.4Y-101.4
X124.25Y-100.25
X125.Y-91.75
X127.5Y-89.345
X127.85Y-72.6
X131.25Y-92.
X131.8Y-95.
X132.Y-79.5
X132.75Y-73.5
X134.25Y-93.8
X135.Y-82.75
X138.Y-92.4
X140.013Y-79.237
X140.75Y-89.25
X144.Y-82.75
X144.Y-84.
X144.75Y-85.25
X144.987Y-80.737
X145.Y-79.25
X145.Y-90.
X145.75Y-83.
T2
X143.75Y-72.46
X143.75Y-73.73
X143.75Y-75.
X143.75Y-76.27
X143.75Y-77.54
X145.02Y-72.46
X145.02Y-73.73
X145.02Y-75.
X145.02Y-76.27
X145.02Y-77.54
T3
X119.9Y-69.5
X119.9Y-93.
X143.4Y-69.5
X143.4Y-93.
T4
X127.85Y-69.7
X130.39Y-69.7
X132.93Y-69.7
X135.47Y-69.7
X139.5Y-98.75
X139.5Y-101.29
X142.04Y-98.75
X142.04Y-101.29
X144.58Y-98.75
X144.58Y-101.29
X118.38Y-99.25
X126.Y-99.25
T5
X129.5Y-98.
X129.5Y-102.5
X136.Y-98.
X136.Y-102.5
T6
X120.25Y-82.75
X139.75Y-82.75
T0
M30
