G04 #@! TF.GenerationSoftware,KiCad,Pcbnew,(5.0.0)*
G04 #@! TF.CreationDate,2020-03-15T13:15:32-04:00*
G04 #@! TF.ProjectId,Attiny_IMU_LCD_ETC,417474696E795F494D555F4C43445F45,rev?*
G04 #@! TF.SameCoordinates,Original*
G04 #@! TF.FileFunction,Copper,L2,Bot,Signal*
G04 #@! TF.FilePolarity,Positive*
%FSLAX46Y46*%
G04 Gerber Fmt 4.6, Leading zero omitted, Abs format (unit mm)*
G04 Created by KiCad (PCBNEW (5.0.0)) date 03/15/20 13:15:32*
%MOMM*%
%LPD*%
G01*
G04 APERTURE LIST*
G04 #@! TA.AperFunction,ComponentPad*
%ADD10O,1.000000X1.000000*%
G04 #@! TD*
G04 #@! TA.AperFunction,ComponentPad*
%ADD11R,1.000000X1.000000*%
G04 #@! TD*
G04 #@! TA.AperFunction,ComponentPad*
%ADD12O,2.200000X2.200000*%
G04 #@! TD*
G04 #@! TA.AperFunction,ComponentPad*
%ADD13R,2.200000X2.200000*%
G04 #@! TD*
G04 #@! TA.AperFunction,ComponentPad*
%ADD14C,2.000000*%
G04 #@! TD*
G04 #@! TA.AperFunction,ComponentPad*
%ADD15O,4.500000X3.000000*%
G04 #@! TD*
G04 #@! TA.AperFunction,ComponentPad*
%ADD16R,1.700000X1.700000*%
G04 #@! TD*
G04 #@! TA.AperFunction,ComponentPad*
%ADD17O,1.700000X1.700000*%
G04 #@! TD*
G04 #@! TA.AperFunction,ComponentPad*
%ADD18C,2.500000*%
G04 #@! TD*
G04 #@! TA.AperFunction,ViaPad*
%ADD19C,0.800000*%
G04 #@! TD*
G04 #@! TA.AperFunction,Conductor*
%ADD20C,0.250000*%
G04 #@! TD*
G04 #@! TA.AperFunction,NonConductor*
%ADD21C,0.254000*%
G04 #@! TD*
G04 APERTURE END LIST*
D10*
G04 #@! TO.P,J1,10*
G04 #@! TO.N,GND*
X145020000Y-72460000D03*
G04 #@! TO.P,J1,9*
G04 #@! TO.N,SDA*
X143750000Y-72460000D03*
G04 #@! TO.P,J1,8*
G04 #@! TO.N,N/C*
X145020000Y-73730000D03*
G04 #@! TO.P,J1,7*
G04 #@! TO.N,+3V3*
X143750000Y-73730000D03*
G04 #@! TO.P,J1,6*
G04 #@! TO.N,RST*
X145020000Y-75000000D03*
G04 #@! TO.P,J1,5*
G04 #@! TO.N,N/C*
X143750000Y-75000000D03*
G04 #@! TO.P,J1,4*
G04 #@! TO.N,+3V3*
X145020000Y-76270000D03*
G04 #@! TO.P,J1,3*
G04 #@! TO.N,BTN*
X143750000Y-76270000D03*
G04 #@! TO.P,J1,2*
G04 #@! TO.N,GND*
X145020000Y-77540000D03*
D11*
G04 #@! TO.P,J1,1*
G04 #@! TO.N,SCL*
X143750000Y-77540000D03*
G04 #@! TD*
D12*
G04 #@! TO.P,SW1,2*
G04 #@! TO.N,+3V3*
X126000000Y-99250000D03*
D13*
G04 #@! TO.P,SW1,1*
G04 #@! TO.N,Net-(SW1-Pad1)*
X118380000Y-99250000D03*
G04 #@! TD*
D14*
G04 #@! TO.P,SW2,1*
G04 #@! TO.N,BTN*
X136000000Y-98000000D03*
G04 #@! TO.P,SW2,2*
G04 #@! TO.N,GND*
X136000000Y-102500000D03*
G04 #@! TO.P,SW2,1*
G04 #@! TO.N,BTN*
X129500000Y-98000000D03*
G04 #@! TO.P,SW2,2*
G04 #@! TO.N,GND*
X129500000Y-102500000D03*
G04 #@! TD*
D15*
G04 #@! TO.P,U1,5*
G04 #@! TO.N,GND*
X119900001Y-93000000D03*
X143400001Y-93000000D03*
X119900001Y-69500000D03*
X143400001Y-69500000D03*
D16*
G04 #@! TO.P,U1,1*
G04 #@! TO.N,+3V3*
X127850001Y-69700000D03*
D17*
G04 #@! TO.P,U1,2*
G04 #@! TO.N,GND*
X130390001Y-69700000D03*
G04 #@! TO.P,U1,3*
G04 #@! TO.N,SCL*
X132930001Y-69700000D03*
G04 #@! TO.P,U1,4*
G04 #@! TO.N,SDA*
X135470001Y-69700000D03*
G04 #@! TD*
D18*
G04 #@! TO.P,U2,1*
G04 #@! TO.N,GND*
X120250000Y-82750000D03*
G04 #@! TO.P,U2,2*
G04 #@! TO.N,Net-(SW1-Pad1)*
X139750000Y-82750000D03*
G04 #@! TD*
D17*
G04 #@! TO.P,J2,6*
G04 #@! TO.N,SDA*
X144580000Y-98750000D03*
G04 #@! TO.P,J2,5*
G04 #@! TO.N,LED2*
X144580000Y-101290000D03*
G04 #@! TO.P,J2,4*
G04 #@! TO.N,SCL*
X142040000Y-98750000D03*
G04 #@! TO.P,J2,3*
G04 #@! TO.N,LED1*
X142040000Y-101290000D03*
G04 #@! TO.P,J2,2*
G04 #@! TO.N,GND*
X139500000Y-98750000D03*
D16*
G04 #@! TO.P,J2,1*
G04 #@! TO.N,+3V3*
X139500000Y-101290000D03*
G04 #@! TD*
D19*
G04 #@! TO.N,GND*
X145000000Y-90000000D03*
X123400000Y-101400000D03*
X131800000Y-95000000D03*
X138000000Y-92400000D03*
X145000000Y-79250000D03*
X144000000Y-82750000D03*
X140750000Y-89250000D03*
G04 #@! TO.N,+3V3*
X122000000Y-98000000D03*
X122750000Y-90250000D03*
X145750000Y-83000000D03*
X127850001Y-72600001D03*
G04 #@! TO.N,BTN*
X132000000Y-79500000D03*
X135000000Y-82750000D03*
X134250000Y-93800000D03*
G04 #@! TO.N,SCL*
X132750000Y-73500000D03*
X144000000Y-84000000D03*
G04 #@! TO.N,RST*
X127500000Y-89345000D03*
X140012653Y-79237347D03*
G04 #@! TO.N,SDA*
X144750000Y-85250000D03*
X144987347Y-80737347D03*
G04 #@! TO.N,LED1*
X121250000Y-100750000D03*
X125000000Y-91750000D03*
G04 #@! TO.N,LED2*
X124250000Y-100250000D03*
X131250000Y-92000000D03*
G04 #@! TD*
D20*
G04 #@! TO.N,GND*
X130390001Y-70902081D02*
X130987920Y-71500000D01*
X130390001Y-69700000D02*
X130390001Y-70902081D01*
X140900001Y-69500000D02*
X143400001Y-69500000D01*
X138900001Y-71500000D02*
X140900001Y-69500000D01*
X144770000Y-70869999D02*
X143400001Y-69500000D01*
X124400001Y-71500000D02*
X131500000Y-71500000D01*
X122400001Y-69500000D02*
X124400001Y-71500000D01*
X119900001Y-69500000D02*
X122400001Y-69500000D01*
X130987920Y-71500000D02*
X131500000Y-71500000D01*
X131500000Y-71500000D02*
X138900001Y-71500000D01*
X144650001Y-90000000D02*
X145000000Y-90000000D01*
X143400001Y-91250000D02*
X144650001Y-90000000D01*
X143400001Y-93000000D02*
X143400001Y-91250000D01*
X129500000Y-102500000D02*
X136000000Y-102500000D01*
X119900001Y-83099999D02*
X120250000Y-82750000D01*
X119900001Y-93000000D02*
X119900001Y-83099999D01*
X119900001Y-82400001D02*
X120250000Y-82750000D01*
X119900001Y-69500000D02*
X119900001Y-82400001D01*
X124500000Y-102500000D02*
X123400000Y-101400000D01*
X129500000Y-102500000D02*
X124500000Y-102500000D01*
X139500000Y-98750000D02*
X138000000Y-97250000D01*
X138000000Y-97250000D02*
X138000000Y-96600000D01*
X138000000Y-96600000D02*
X137200000Y-95800000D01*
X137200000Y-95800000D02*
X132600000Y-95800000D01*
X132600000Y-95800000D02*
X131800000Y-95000000D01*
X138000000Y-96600000D02*
X138000000Y-92400000D01*
X145020000Y-71752894D02*
X145000000Y-71732894D01*
X145020000Y-72460000D02*
X145020000Y-71752894D01*
X145000000Y-71099999D02*
X143400001Y-69500000D01*
X145000000Y-71732894D02*
X145000000Y-71099999D01*
X142650001Y-93000000D02*
X143400001Y-93000000D01*
X140750000Y-91099999D02*
X142650001Y-93000000D01*
X140750000Y-89250000D02*
X140750000Y-91099999D01*
X144250000Y-80000000D02*
X145000000Y-79250000D01*
X144000000Y-80250000D02*
X144250000Y-80000000D01*
X144000000Y-82750000D02*
X144000000Y-80250000D01*
G04 #@! TO.N,+3V3*
X126000000Y-99250000D02*
X127099999Y-100349999D01*
X122750000Y-91000000D02*
X122750000Y-90250000D01*
X123250000Y-91500000D02*
X122750000Y-91000000D01*
X123250000Y-95500000D02*
X123250000Y-91500000D01*
X122475011Y-96274989D02*
X123250000Y-95500000D01*
X122475011Y-97524989D02*
X122475011Y-96274989D01*
X122000000Y-98000000D02*
X122475011Y-97524989D01*
X127099999Y-100349999D02*
X137349999Y-100349999D01*
X138290000Y-101290000D02*
X139500000Y-101290000D01*
X137349999Y-100349999D02*
X138290000Y-101290000D01*
X145770000Y-76270000D02*
X145020000Y-76270000D01*
X146000000Y-76500000D02*
X145770000Y-76270000D01*
X146000000Y-78750000D02*
X146000000Y-76500000D01*
X145750000Y-83000000D02*
X145750000Y-79000000D01*
X145750000Y-79000000D02*
X146000000Y-78750000D01*
X141532884Y-72219990D02*
X129280010Y-72219990D01*
X143750000Y-73730000D02*
X143042894Y-73730000D01*
X143042894Y-73730000D02*
X141532884Y-72219990D01*
X129280010Y-72219990D02*
X128899999Y-72600001D01*
X128899999Y-72600001D02*
X127850001Y-72600001D01*
G04 #@! TO.N,BTN*
X136000000Y-98000000D02*
X129500000Y-98000000D01*
X131830000Y-72670000D02*
X131000000Y-73500000D01*
X131000000Y-73500000D02*
X131000000Y-78500000D01*
X131000000Y-78500000D02*
X132000000Y-79500000D01*
X135000000Y-82750000D02*
X135000000Y-88000000D01*
X135000000Y-88000000D02*
X134200000Y-88800000D01*
X134200000Y-93750000D02*
X134250000Y-93800000D01*
X134200000Y-88800000D02*
X134200000Y-93750000D01*
X131830000Y-72670000D02*
X135170000Y-72670000D01*
X138770000Y-76270000D02*
X143750000Y-76270000D01*
X135170000Y-72670000D02*
X138770000Y-76270000D01*
G04 #@! TO.N,SCL*
X133750000Y-73500000D02*
X132750000Y-73500000D01*
X134190000Y-73940000D02*
X133750000Y-73500000D01*
X139490000Y-96200000D02*
X142040000Y-98750000D01*
X139000000Y-95710000D02*
X139490000Y-96200000D01*
X139000000Y-86750000D02*
X139000000Y-95710000D01*
X141750000Y-84000000D02*
X139000000Y-86750000D01*
X144000000Y-84000000D02*
X141750000Y-84000000D01*
X134190000Y-75940000D02*
X134190000Y-73940000D01*
X135790000Y-77540000D02*
X134190000Y-75940000D01*
X139750000Y-77540000D02*
X135790000Y-77540000D01*
X142500000Y-82500000D02*
X142500000Y-80290000D01*
X144000000Y-84000000D02*
X142500000Y-82500000D01*
X142500000Y-78290000D02*
X143250000Y-77540000D01*
X142500000Y-80290000D02*
X142500000Y-78290000D01*
X143750000Y-77540000D02*
X143250000Y-77540000D01*
X143250000Y-77540000D02*
X139750000Y-77540000D01*
G04 #@! TO.N,RST*
X136750000Y-79500000D02*
X133500000Y-79500000D01*
X133500000Y-79500000D02*
X127250000Y-85750000D01*
X127250000Y-89095000D02*
X127500000Y-89345000D01*
X127250000Y-85750000D02*
X127250000Y-89095000D01*
X137012653Y-79237347D02*
X136750000Y-79500000D01*
X140012653Y-79237347D02*
X137012653Y-79237347D01*
G04 #@! TO.N,SDA*
X140000000Y-94170000D02*
X142400000Y-96570000D01*
X140000000Y-87250000D02*
X140000000Y-94170000D01*
X142000000Y-85250000D02*
X140000000Y-87250000D01*
X142400000Y-96570000D02*
X144580000Y-98750000D01*
X144750000Y-85250000D02*
X142000000Y-85250000D01*
X144750000Y-80974694D02*
X144987347Y-80737347D01*
X144750000Y-85250000D02*
X144750000Y-80974694D01*
G04 #@! TO.N,LED1*
X124500000Y-91750000D02*
X125000000Y-91750000D01*
X124000000Y-92250000D02*
X124500000Y-91750000D01*
X124000000Y-96250000D02*
X124000000Y-92250000D01*
X123250000Y-97000000D02*
X124000000Y-96250000D01*
X123250000Y-98750000D02*
X123250000Y-97000000D01*
X121250000Y-100750000D02*
X123250000Y-98750000D01*
X142040000Y-102960000D02*
X142040000Y-101290000D01*
X141174999Y-103825001D02*
X142040000Y-102960000D01*
X123225001Y-103825001D02*
X141174999Y-103825001D01*
X121250000Y-100750000D02*
X121250000Y-101850000D01*
X121250000Y-101850000D02*
X123225001Y-103825001D01*
G04 #@! TO.N,LED2*
X124250000Y-97500000D02*
X124250000Y-100250000D01*
X124750000Y-97000000D02*
X124250000Y-97500000D01*
X124750000Y-93000000D02*
X124750000Y-97000000D01*
X125250000Y-92500000D02*
X124750000Y-93000000D01*
X130750000Y-92500000D02*
X125250000Y-92500000D01*
X131250000Y-92000000D02*
X130750000Y-92500000D01*
G04 #@! TD*
D21*
G36*
X117610752Y-94539249D02*
X118316965Y-95011126D01*
X118939722Y-95135000D01*
X120860280Y-95135000D01*
X121483037Y-95011126D01*
X122189250Y-94539249D01*
X122490000Y-94089145D01*
X122490000Y-95185198D01*
X121990539Y-95684660D01*
X121927083Y-95727060D01*
X121884683Y-95790516D01*
X121884682Y-95790517D01*
X121759108Y-95978452D01*
X121700123Y-96274989D01*
X121715012Y-96349840D01*
X121715011Y-96997770D01*
X121413720Y-97122569D01*
X121122569Y-97413720D01*
X120965000Y-97794126D01*
X120965000Y-98205874D01*
X121122569Y-98586280D01*
X121413720Y-98877431D01*
X121794126Y-99035000D01*
X121890198Y-99035000D01*
X121210199Y-99715000D01*
X121044126Y-99715000D01*
X120663720Y-99872569D01*
X120372569Y-100163720D01*
X120215000Y-100544126D01*
X120215000Y-100955874D01*
X120372569Y-101336280D01*
X120490001Y-101453712D01*
X120490001Y-101775149D01*
X120475112Y-101850000D01*
X120534097Y-102146537D01*
X120621558Y-102277431D01*
X120702072Y-102397929D01*
X120765528Y-102440329D01*
X121865198Y-103540000D01*
X117319930Y-103540000D01*
X117240016Y-103524104D01*
X117231551Y-103518448D01*
X117225896Y-103509985D01*
X117210000Y-103430070D01*
X117210000Y-100983516D01*
X117280000Y-100997440D01*
X119480000Y-100997440D01*
X119727765Y-100948157D01*
X119937809Y-100807809D01*
X120078157Y-100597765D01*
X120127440Y-100350000D01*
X120127440Y-98150000D01*
X120078157Y-97902235D01*
X119937809Y-97692191D01*
X119727765Y-97551843D01*
X119480000Y-97502560D01*
X117280000Y-97502560D01*
X117210000Y-97516484D01*
X117210000Y-93939482D01*
X117610752Y-94539249D01*
X117610752Y-94539249D01*
G37*
X117610752Y-94539249D02*
X118316965Y-95011126D01*
X118939722Y-95135000D01*
X120860280Y-95135000D01*
X121483037Y-95011126D01*
X122189250Y-94539249D01*
X122490000Y-94089145D01*
X122490000Y-95185198D01*
X121990539Y-95684660D01*
X121927083Y-95727060D01*
X121884683Y-95790516D01*
X121884682Y-95790517D01*
X121759108Y-95978452D01*
X121700123Y-96274989D01*
X121715012Y-96349840D01*
X121715011Y-96997770D01*
X121413720Y-97122569D01*
X121122569Y-97413720D01*
X120965000Y-97794126D01*
X120965000Y-98205874D01*
X121122569Y-98586280D01*
X121413720Y-98877431D01*
X121794126Y-99035000D01*
X121890198Y-99035000D01*
X121210199Y-99715000D01*
X121044126Y-99715000D01*
X120663720Y-99872569D01*
X120372569Y-100163720D01*
X120215000Y-100544126D01*
X120215000Y-100955874D01*
X120372569Y-101336280D01*
X120490001Y-101453712D01*
X120490001Y-101775149D01*
X120475112Y-101850000D01*
X120534097Y-102146537D01*
X120621558Y-102277431D01*
X120702072Y-102397929D01*
X120765528Y-102440329D01*
X121865198Y-103540000D01*
X117319930Y-103540000D01*
X117240016Y-103524104D01*
X117231551Y-103518448D01*
X117225896Y-103509985D01*
X117210000Y-103430070D01*
X117210000Y-100983516D01*
X117280000Y-100997440D01*
X119480000Y-100997440D01*
X119727765Y-100948157D01*
X119937809Y-100807809D01*
X120078157Y-100597765D01*
X120127440Y-100350000D01*
X120127440Y-98150000D01*
X120078157Y-97902235D01*
X119937809Y-97692191D01*
X119727765Y-97551843D01*
X119480000Y-97502560D01*
X117280000Y-97502560D01*
X117210000Y-97516484D01*
X117210000Y-93939482D01*
X117610752Y-94539249D01*
G36*
X146040001Y-103430065D02*
X146024104Y-103509984D01*
X146018448Y-103518449D01*
X146009985Y-103524104D01*
X145930070Y-103540000D01*
X142539931Y-103540000D01*
X142587929Y-103507929D01*
X142755904Y-103256537D01*
X142800000Y-103034852D01*
X142800000Y-103034848D01*
X142814888Y-102960001D01*
X142800000Y-102885154D01*
X142800000Y-102568178D01*
X143110625Y-102360625D01*
X143310000Y-102062239D01*
X143509375Y-102360625D01*
X144000582Y-102688839D01*
X144433744Y-102775000D01*
X144726256Y-102775000D01*
X145159418Y-102688839D01*
X145650625Y-102360625D01*
X145978839Y-101869418D01*
X146040001Y-101561935D01*
X146040001Y-103430065D01*
X146040001Y-103430065D01*
G37*
X146040001Y-103430065D02*
X146024104Y-103509984D01*
X146018448Y-103518449D01*
X146009985Y-103524104D01*
X145930070Y-103540000D01*
X142539931Y-103540000D01*
X142587929Y-103507929D01*
X142755904Y-103256537D01*
X142800000Y-103034852D01*
X142800000Y-103034848D01*
X142814888Y-102960001D01*
X142800000Y-102885154D01*
X142800000Y-102568178D01*
X143110625Y-102360625D01*
X143310000Y-102062239D01*
X143509375Y-102360625D01*
X144000582Y-102688839D01*
X144433744Y-102775000D01*
X144726256Y-102775000D01*
X145159418Y-102688839D01*
X145650625Y-102360625D01*
X145978839Y-101869418D01*
X146040001Y-101561935D01*
X146040001Y-103430065D01*
G36*
X123215000Y-100044126D02*
X123215000Y-100365000D01*
X123194126Y-100365000D01*
X122813720Y-100522569D01*
X122522569Y-100813720D01*
X122365000Y-101194126D01*
X122365000Y-101605874D01*
X122522569Y-101986280D01*
X122813720Y-102277431D01*
X123194126Y-102435000D01*
X123360199Y-102435000D01*
X123909671Y-102984473D01*
X123952071Y-103047929D01*
X123977621Y-103065001D01*
X123539803Y-103065001D01*
X122010000Y-101535199D01*
X122010000Y-101453711D01*
X122127431Y-101336280D01*
X122285000Y-100955874D01*
X122285000Y-100789801D01*
X123345336Y-99729465D01*
X123215000Y-100044126D01*
X123215000Y-100044126D01*
G37*
X123215000Y-100044126D02*
X123215000Y-100365000D01*
X123194126Y-100365000D01*
X122813720Y-100522569D01*
X122522569Y-100813720D01*
X122365000Y-101194126D01*
X122365000Y-101605874D01*
X122522569Y-101986280D01*
X122813720Y-102277431D01*
X123194126Y-102435000D01*
X123360199Y-102435000D01*
X123909671Y-102984473D01*
X123952071Y-103047929D01*
X123977621Y-103065001D01*
X123539803Y-103065001D01*
X122010000Y-101535199D01*
X122010000Y-101453711D01*
X122127431Y-101336280D01*
X122285000Y-100955874D01*
X122285000Y-100789801D01*
X123345336Y-99729465D01*
X123215000Y-100044126D01*
G36*
X137699671Y-101774473D02*
X137742071Y-101837929D01*
X137993463Y-102005904D01*
X138002560Y-102007714D01*
X138002560Y-102140000D01*
X138051843Y-102387765D01*
X138192191Y-102597809D01*
X138402235Y-102738157D01*
X138650000Y-102787440D01*
X140350000Y-102787440D01*
X140597765Y-102738157D01*
X140807809Y-102597809D01*
X140948157Y-102387765D01*
X140957184Y-102342381D01*
X140969375Y-102360625D01*
X141280000Y-102568178D01*
X141280000Y-102645198D01*
X140860198Y-103065001D01*
X137535680Y-103065001D01*
X137635000Y-102825222D01*
X137635000Y-102174778D01*
X137386086Y-101573847D01*
X136926153Y-101113914D01*
X136916701Y-101109999D01*
X137035198Y-101109999D01*
X137699671Y-101774473D01*
X137699671Y-101774473D01*
G37*
X137699671Y-101774473D02*
X137742071Y-101837929D01*
X137993463Y-102005904D01*
X138002560Y-102007714D01*
X138002560Y-102140000D01*
X138051843Y-102387765D01*
X138192191Y-102597809D01*
X138402235Y-102738157D01*
X138650000Y-102787440D01*
X140350000Y-102787440D01*
X140597765Y-102738157D01*
X140807809Y-102597809D01*
X140948157Y-102387765D01*
X140957184Y-102342381D01*
X140969375Y-102360625D01*
X141280000Y-102568178D01*
X141280000Y-102645198D01*
X140860198Y-103065001D01*
X137535680Y-103065001D01*
X137635000Y-102825222D01*
X137635000Y-102174778D01*
X137386086Y-101573847D01*
X136926153Y-101113914D01*
X136916701Y-101109999D01*
X137035198Y-101109999D01*
X137699671Y-101774473D01*
G36*
X135073847Y-101113914D02*
X134613914Y-101573847D01*
X134545091Y-101740000D01*
X130954909Y-101740000D01*
X130886086Y-101573847D01*
X130426153Y-101113914D01*
X130416701Y-101109999D01*
X135083299Y-101109999D01*
X135073847Y-101113914D01*
X135073847Y-101113914D01*
G37*
X135073847Y-101113914D02*
X134613914Y-101573847D01*
X134545091Y-101740000D01*
X130954909Y-101740000D01*
X130886086Y-101573847D01*
X130426153Y-101113914D01*
X130416701Y-101109999D01*
X135083299Y-101109999D01*
X135073847Y-101113914D01*
G36*
X125323037Y-100884334D02*
X125829120Y-100985000D01*
X126170880Y-100985000D01*
X126565043Y-100906596D01*
X126803462Y-101065903D01*
X127025147Y-101109999D01*
X127025151Y-101109999D01*
X127099999Y-101124887D01*
X127174847Y-101109999D01*
X128583299Y-101109999D01*
X128573847Y-101113914D01*
X128113914Y-101573847D01*
X128045091Y-101740000D01*
X124814802Y-101740000D01*
X124435000Y-101360199D01*
X124435000Y-101285000D01*
X124455874Y-101285000D01*
X124836280Y-101127431D01*
X125127431Y-100836280D01*
X125154243Y-100771550D01*
X125323037Y-100884334D01*
X125323037Y-100884334D01*
G37*
X125323037Y-100884334D02*
X125829120Y-100985000D01*
X126170880Y-100985000D01*
X126565043Y-100906596D01*
X126803462Y-101065903D01*
X127025147Y-101109999D01*
X127025151Y-101109999D01*
X127099999Y-101124887D01*
X127174847Y-101109999D01*
X128583299Y-101109999D01*
X128573847Y-101113914D01*
X128113914Y-101573847D01*
X128045091Y-101740000D01*
X124814802Y-101740000D01*
X124435000Y-101360199D01*
X124435000Y-101285000D01*
X124455874Y-101285000D01*
X124836280Y-101127431D01*
X125127431Y-100836280D01*
X125154243Y-100771550D01*
X125323037Y-100884334D01*
G36*
X146040001Y-101018065D02*
X145978839Y-100710582D01*
X145650625Y-100219375D01*
X145352239Y-100020000D01*
X145650625Y-99820625D01*
X145978839Y-99329418D01*
X146040001Y-99021935D01*
X146040001Y-101018065D01*
X146040001Y-101018065D01*
G37*
X146040001Y-101018065D02*
X145978839Y-100710582D01*
X145650625Y-100219375D01*
X145352239Y-100020000D01*
X145650625Y-99820625D01*
X145978839Y-99329418D01*
X146040001Y-99021935D01*
X146040001Y-101018065D01*
G36*
X143509375Y-99820625D02*
X143807761Y-100020000D01*
X143509375Y-100219375D01*
X143310000Y-100517761D01*
X143110625Y-100219375D01*
X142812239Y-100020000D01*
X143110625Y-99820625D01*
X143310000Y-99522239D01*
X143509375Y-99820625D01*
X143509375Y-99820625D01*
G37*
X143509375Y-99820625D02*
X143807761Y-100020000D01*
X143509375Y-100219375D01*
X143310000Y-100517761D01*
X143110625Y-100219375D01*
X142812239Y-100020000D01*
X143110625Y-99820625D01*
X143310000Y-99522239D01*
X143509375Y-99820625D01*
G36*
X140969375Y-99820625D02*
X141267761Y-100020000D01*
X140969375Y-100219375D01*
X140957184Y-100237619D01*
X140948157Y-100192235D01*
X140807809Y-99982191D01*
X140597765Y-99841843D01*
X140552381Y-99832816D01*
X140570625Y-99820625D01*
X140770000Y-99522239D01*
X140969375Y-99820625D01*
X140969375Y-99820625D01*
G37*
X140969375Y-99820625D02*
X141267761Y-100020000D01*
X140969375Y-100219375D01*
X140957184Y-100237619D01*
X140948157Y-100192235D01*
X140807809Y-99982191D01*
X140597765Y-99841843D01*
X140552381Y-99832816D01*
X140570625Y-99820625D01*
X140770000Y-99522239D01*
X140969375Y-99820625D01*
G36*
X138058791Y-98383593D02*
X137985908Y-98750000D01*
X138101161Y-99329418D01*
X138429375Y-99820625D01*
X138447619Y-99832816D01*
X138402235Y-99841843D01*
X138192191Y-99982191D01*
X138138038Y-100063236D01*
X137940330Y-99865529D01*
X137897928Y-99802070D01*
X137646536Y-99634095D01*
X137424851Y-99589999D01*
X137424846Y-99589999D01*
X137349999Y-99575111D01*
X137275152Y-99589999D01*
X136433864Y-99589999D01*
X136926153Y-99386086D01*
X137386086Y-98926153D01*
X137635000Y-98325222D01*
X137635000Y-97959801D01*
X138058791Y-98383593D01*
X138058791Y-98383593D01*
G37*
X138058791Y-98383593D02*
X137985908Y-98750000D01*
X138101161Y-99329418D01*
X138429375Y-99820625D01*
X138447619Y-99832816D01*
X138402235Y-99841843D01*
X138192191Y-99982191D01*
X138138038Y-100063236D01*
X137940330Y-99865529D01*
X137897928Y-99802070D01*
X137646536Y-99634095D01*
X137424851Y-99589999D01*
X137424846Y-99589999D01*
X137349999Y-99575111D01*
X137275152Y-99589999D01*
X136433864Y-99589999D01*
X136926153Y-99386086D01*
X137386086Y-98926153D01*
X137635000Y-98325222D01*
X137635000Y-97959801D01*
X138058791Y-98383593D01*
G36*
X123809672Y-71984473D02*
X123852072Y-72047929D01*
X124103464Y-72215904D01*
X124325149Y-72260000D01*
X124325153Y-72260000D01*
X124400000Y-72274888D01*
X124474847Y-72260000D01*
X126870558Y-72260000D01*
X126815001Y-72394127D01*
X126815001Y-72805875D01*
X126972570Y-73186281D01*
X127263721Y-73477432D01*
X127644127Y-73635001D01*
X128055875Y-73635001D01*
X128436281Y-73477432D01*
X128553712Y-73360001D01*
X128825152Y-73360001D01*
X128899999Y-73374889D01*
X128974846Y-73360001D01*
X128974851Y-73360001D01*
X129196536Y-73315905D01*
X129447928Y-73147930D01*
X129490330Y-73084471D01*
X129594811Y-72979990D01*
X130433416Y-72979990D01*
X130284096Y-73203464D01*
X130240000Y-73425149D01*
X130240000Y-73425153D01*
X130225112Y-73500000D01*
X130240000Y-73574847D01*
X130240001Y-78425148D01*
X130225112Y-78500000D01*
X130240001Y-78574852D01*
X130265583Y-78703463D01*
X130284097Y-78796537D01*
X130388952Y-78953463D01*
X130452072Y-79047929D01*
X130515528Y-79090329D01*
X130965000Y-79539802D01*
X130965000Y-79705874D01*
X131122569Y-80086280D01*
X131413720Y-80377431D01*
X131508506Y-80416692D01*
X126765530Y-85159669D01*
X126702071Y-85202071D01*
X126534096Y-85453464D01*
X126490000Y-85675149D01*
X126490000Y-85675153D01*
X126475112Y-85750000D01*
X126490000Y-85824847D01*
X126490001Y-89020148D01*
X126475112Y-89095000D01*
X126477761Y-89108318D01*
X126465000Y-89139126D01*
X126465000Y-89550874D01*
X126622569Y-89931280D01*
X126913720Y-90222431D01*
X127294126Y-90380000D01*
X127705874Y-90380000D01*
X128086280Y-90222431D01*
X128377431Y-89931280D01*
X128535000Y-89550874D01*
X128535000Y-89139126D01*
X128377431Y-88758720D01*
X128086280Y-88467569D01*
X128010000Y-88435973D01*
X128010000Y-86064801D01*
X133814802Y-80260000D01*
X136675153Y-80260000D01*
X136750000Y-80274888D01*
X136824847Y-80260000D01*
X136824852Y-80260000D01*
X137046537Y-80215904D01*
X137297929Y-80047929D01*
X137331727Y-79997347D01*
X139308942Y-79997347D01*
X139426373Y-80114778D01*
X139806779Y-80272347D01*
X140218527Y-80272347D01*
X140598933Y-80114778D01*
X140890084Y-79823627D01*
X141047653Y-79443221D01*
X141047653Y-79031473D01*
X140890084Y-78651067D01*
X140598933Y-78359916D01*
X140454283Y-78300000D01*
X141727101Y-78300000D01*
X141740001Y-78364852D01*
X141740000Y-80364851D01*
X141740001Y-80364856D01*
X141740000Y-82425153D01*
X141725112Y-82500000D01*
X141740000Y-82574847D01*
X141740000Y-82574851D01*
X141784096Y-82796536D01*
X141952071Y-83047929D01*
X142015530Y-83090331D01*
X142165199Y-83240000D01*
X141824846Y-83240000D01*
X141749999Y-83225112D01*
X141675152Y-83240000D01*
X141675148Y-83240000D01*
X141579461Y-83259033D01*
X141635000Y-83124950D01*
X141635000Y-82375050D01*
X141348026Y-81682233D01*
X140817767Y-81151974D01*
X140124950Y-80865000D01*
X139375050Y-80865000D01*
X138682233Y-81151974D01*
X138151974Y-81682233D01*
X137865000Y-82375050D01*
X137865000Y-83124950D01*
X138151974Y-83817767D01*
X138682233Y-84348026D01*
X139375050Y-84635000D01*
X140040198Y-84635000D01*
X138515530Y-86159669D01*
X138452071Y-86202071D01*
X138284096Y-86453464D01*
X138240000Y-86675149D01*
X138240000Y-86675153D01*
X138225112Y-86750000D01*
X138240000Y-86824847D01*
X138240001Y-91379136D01*
X138205874Y-91365000D01*
X137794126Y-91365000D01*
X137413720Y-91522569D01*
X137122569Y-91813720D01*
X136965000Y-92194126D01*
X136965000Y-92605874D01*
X137122569Y-92986280D01*
X137240001Y-93103712D01*
X137240000Y-95033069D01*
X137200000Y-95025112D01*
X137125153Y-95040000D01*
X132914802Y-95040000D01*
X132835000Y-94960198D01*
X132835000Y-94794126D01*
X132677431Y-94413720D01*
X132386280Y-94122569D01*
X132005874Y-93965000D01*
X131594126Y-93965000D01*
X131213720Y-94122569D01*
X130922569Y-94413720D01*
X130765000Y-94794126D01*
X130765000Y-95205874D01*
X130922569Y-95586280D01*
X131213720Y-95877431D01*
X131594126Y-96035000D01*
X131760198Y-96035000D01*
X132009670Y-96284472D01*
X132052071Y-96347929D01*
X132115527Y-96390329D01*
X132303462Y-96515904D01*
X132349936Y-96525148D01*
X132525148Y-96560000D01*
X132525152Y-96560000D01*
X132600000Y-96574888D01*
X132674848Y-96560000D01*
X135204007Y-96560000D01*
X135073847Y-96613914D01*
X134613914Y-97073847D01*
X134545091Y-97240000D01*
X130954909Y-97240000D01*
X130886086Y-97073847D01*
X130426153Y-96613914D01*
X129825222Y-96365000D01*
X129174778Y-96365000D01*
X128573847Y-96613914D01*
X128113914Y-97073847D01*
X127865000Y-97674778D01*
X127865000Y-98325222D01*
X128113914Y-98926153D01*
X128573847Y-99386086D01*
X129066136Y-99589999D01*
X127701360Y-99589999D01*
X127768990Y-99250000D01*
X127634334Y-98573037D01*
X127250865Y-97999135D01*
X126676963Y-97615666D01*
X126170880Y-97515000D01*
X125829120Y-97515000D01*
X125323037Y-97615666D01*
X125010000Y-97824831D01*
X125010000Y-97814801D01*
X125234472Y-97590329D01*
X125297929Y-97547929D01*
X125413551Y-97374889D01*
X125465904Y-97296538D01*
X125484417Y-97203464D01*
X125510000Y-97074852D01*
X125510000Y-97074848D01*
X125524888Y-97000000D01*
X125510000Y-96925152D01*
X125510000Y-93594126D01*
X133215000Y-93594126D01*
X133215000Y-94005874D01*
X133372569Y-94386280D01*
X133663720Y-94677431D01*
X134044126Y-94835000D01*
X134455874Y-94835000D01*
X134836280Y-94677431D01*
X135127431Y-94386280D01*
X135285000Y-94005874D01*
X135285000Y-93594126D01*
X135127431Y-93213720D01*
X134960000Y-93046289D01*
X134960000Y-89114801D01*
X135484473Y-88590329D01*
X135547929Y-88547929D01*
X135703215Y-88315528D01*
X135715904Y-88296538D01*
X135758161Y-88084096D01*
X135760000Y-88074852D01*
X135760000Y-88074848D01*
X135774888Y-88000000D01*
X135760000Y-87925152D01*
X135760000Y-83453711D01*
X135877431Y-83336280D01*
X136035000Y-82955874D01*
X136035000Y-82544126D01*
X135877431Y-82163720D01*
X135586280Y-81872569D01*
X135205874Y-81715000D01*
X134794126Y-81715000D01*
X134413720Y-81872569D01*
X134122569Y-82163720D01*
X133965000Y-82544126D01*
X133965000Y-82955874D01*
X134122569Y-83336280D01*
X134240000Y-83453711D01*
X134240001Y-87685197D01*
X133715530Y-88209669D01*
X133652071Y-88252071D01*
X133484096Y-88503464D01*
X133440000Y-88725149D01*
X133440000Y-88725153D01*
X133425112Y-88800000D01*
X133440000Y-88874847D01*
X133440001Y-93146288D01*
X133372569Y-93213720D01*
X133215000Y-93594126D01*
X125510000Y-93594126D01*
X125510000Y-93314801D01*
X125564802Y-93260000D01*
X130675153Y-93260000D01*
X130750000Y-93274888D01*
X130824847Y-93260000D01*
X130824852Y-93260000D01*
X131046537Y-93215904D01*
X131297929Y-93047929D01*
X131306568Y-93035000D01*
X131455874Y-93035000D01*
X131836280Y-92877431D01*
X132127431Y-92586280D01*
X132285000Y-92205874D01*
X132285000Y-91794126D01*
X132127431Y-91413720D01*
X131836280Y-91122569D01*
X131455874Y-90965000D01*
X131044126Y-90965000D01*
X130663720Y-91122569D01*
X130372569Y-91413720D01*
X130237420Y-91740000D01*
X126035000Y-91740000D01*
X126035000Y-91544126D01*
X125877431Y-91163720D01*
X125586280Y-90872569D01*
X125205874Y-90715000D01*
X124794126Y-90715000D01*
X124413720Y-90872569D01*
X124264293Y-91021996D01*
X124251605Y-91024520D01*
X124203462Y-91034096D01*
X124142467Y-91074852D01*
X123960992Y-91196110D01*
X123840329Y-91015527D01*
X123797929Y-90952071D01*
X123734472Y-90909671D01*
X123637287Y-90812485D01*
X123785000Y-90455874D01*
X123785000Y-90044126D01*
X123627431Y-89663720D01*
X123336280Y-89372569D01*
X122955874Y-89215000D01*
X122544126Y-89215000D01*
X122163720Y-89372569D01*
X121872569Y-89663720D01*
X121715000Y-90044126D01*
X121715000Y-90455874D01*
X121872569Y-90836280D01*
X121985262Y-90948973D01*
X121975112Y-91000000D01*
X121990000Y-91074847D01*
X121990000Y-91074851D01*
X122034096Y-91296536D01*
X122107179Y-91405913D01*
X121483037Y-90988874D01*
X120860280Y-90865000D01*
X120660001Y-90865000D01*
X120660001Y-84620481D01*
X121317767Y-84348026D01*
X121848026Y-83817767D01*
X122135000Y-83124950D01*
X122135000Y-82375050D01*
X121848026Y-81682233D01*
X121317767Y-81151974D01*
X120660001Y-80879519D01*
X120660001Y-71635000D01*
X120860280Y-71635000D01*
X121483037Y-71511126D01*
X122189250Y-71039249D01*
X122459697Y-70634497D01*
X123809672Y-71984473D01*
X123809672Y-71984473D01*
G37*
X123809672Y-71984473D02*
X123852072Y-72047929D01*
X124103464Y-72215904D01*
X124325149Y-72260000D01*
X124325153Y-72260000D01*
X124400000Y-72274888D01*
X124474847Y-72260000D01*
X126870558Y-72260000D01*
X126815001Y-72394127D01*
X126815001Y-72805875D01*
X126972570Y-73186281D01*
X127263721Y-73477432D01*
X127644127Y-73635001D01*
X128055875Y-73635001D01*
X128436281Y-73477432D01*
X128553712Y-73360001D01*
X128825152Y-73360001D01*
X128899999Y-73374889D01*
X128974846Y-73360001D01*
X128974851Y-73360001D01*
X129196536Y-73315905D01*
X129447928Y-73147930D01*
X129490330Y-73084471D01*
X129594811Y-72979990D01*
X130433416Y-72979990D01*
X130284096Y-73203464D01*
X130240000Y-73425149D01*
X130240000Y-73425153D01*
X130225112Y-73500000D01*
X130240000Y-73574847D01*
X130240001Y-78425148D01*
X130225112Y-78500000D01*
X130240001Y-78574852D01*
X130265583Y-78703463D01*
X130284097Y-78796537D01*
X130388952Y-78953463D01*
X130452072Y-79047929D01*
X130515528Y-79090329D01*
X130965000Y-79539802D01*
X130965000Y-79705874D01*
X131122569Y-80086280D01*
X131413720Y-80377431D01*
X131508506Y-80416692D01*
X126765530Y-85159669D01*
X126702071Y-85202071D01*
X126534096Y-85453464D01*
X126490000Y-85675149D01*
X126490000Y-85675153D01*
X126475112Y-85750000D01*
X126490000Y-85824847D01*
X126490001Y-89020148D01*
X126475112Y-89095000D01*
X126477761Y-89108318D01*
X126465000Y-89139126D01*
X126465000Y-89550874D01*
X126622569Y-89931280D01*
X126913720Y-90222431D01*
X127294126Y-90380000D01*
X127705874Y-90380000D01*
X128086280Y-90222431D01*
X128377431Y-89931280D01*
X128535000Y-89550874D01*
X128535000Y-89139126D01*
X128377431Y-88758720D01*
X128086280Y-88467569D01*
X128010000Y-88435973D01*
X128010000Y-86064801D01*
X133814802Y-80260000D01*
X136675153Y-80260000D01*
X136750000Y-80274888D01*
X136824847Y-80260000D01*
X136824852Y-80260000D01*
X137046537Y-80215904D01*
X137297929Y-80047929D01*
X137331727Y-79997347D01*
X139308942Y-79997347D01*
X139426373Y-80114778D01*
X139806779Y-80272347D01*
X140218527Y-80272347D01*
X140598933Y-80114778D01*
X140890084Y-79823627D01*
X141047653Y-79443221D01*
X141047653Y-79031473D01*
X140890084Y-78651067D01*
X140598933Y-78359916D01*
X140454283Y-78300000D01*
X141727101Y-78300000D01*
X141740001Y-78364852D01*
X141740000Y-80364851D01*
X141740001Y-80364856D01*
X141740000Y-82425153D01*
X141725112Y-82500000D01*
X141740000Y-82574847D01*
X141740000Y-82574851D01*
X141784096Y-82796536D01*
X141952071Y-83047929D01*
X142015530Y-83090331D01*
X142165199Y-83240000D01*
X141824846Y-83240000D01*
X141749999Y-83225112D01*
X141675152Y-83240000D01*
X141675148Y-83240000D01*
X141579461Y-83259033D01*
X141635000Y-83124950D01*
X141635000Y-82375050D01*
X141348026Y-81682233D01*
X140817767Y-81151974D01*
X140124950Y-80865000D01*
X139375050Y-80865000D01*
X138682233Y-81151974D01*
X138151974Y-81682233D01*
X137865000Y-82375050D01*
X137865000Y-83124950D01*
X138151974Y-83817767D01*
X138682233Y-84348026D01*
X139375050Y-84635000D01*
X140040198Y-84635000D01*
X138515530Y-86159669D01*
X138452071Y-86202071D01*
X138284096Y-86453464D01*
X138240000Y-86675149D01*
X138240000Y-86675153D01*
X138225112Y-86750000D01*
X138240000Y-86824847D01*
X138240001Y-91379136D01*
X138205874Y-91365000D01*
X137794126Y-91365000D01*
X137413720Y-91522569D01*
X137122569Y-91813720D01*
X136965000Y-92194126D01*
X136965000Y-92605874D01*
X137122569Y-92986280D01*
X137240001Y-93103712D01*
X137240000Y-95033069D01*
X137200000Y-95025112D01*
X137125153Y-95040000D01*
X132914802Y-95040000D01*
X132835000Y-94960198D01*
X132835000Y-94794126D01*
X132677431Y-94413720D01*
X132386280Y-94122569D01*
X132005874Y-93965000D01*
X131594126Y-93965000D01*
X131213720Y-94122569D01*
X130922569Y-94413720D01*
X130765000Y-94794126D01*
X130765000Y-95205874D01*
X130922569Y-95586280D01*
X131213720Y-95877431D01*
X131594126Y-96035000D01*
X131760198Y-96035000D01*
X132009670Y-96284472D01*
X132052071Y-96347929D01*
X132115527Y-96390329D01*
X132303462Y-96515904D01*
X132349936Y-96525148D01*
X132525148Y-96560000D01*
X132525152Y-96560000D01*
X132600000Y-96574888D01*
X132674848Y-96560000D01*
X135204007Y-96560000D01*
X135073847Y-96613914D01*
X134613914Y-97073847D01*
X134545091Y-97240000D01*
X130954909Y-97240000D01*
X130886086Y-97073847D01*
X130426153Y-96613914D01*
X129825222Y-96365000D01*
X129174778Y-96365000D01*
X128573847Y-96613914D01*
X128113914Y-97073847D01*
X127865000Y-97674778D01*
X127865000Y-98325222D01*
X128113914Y-98926153D01*
X128573847Y-99386086D01*
X129066136Y-99589999D01*
X127701360Y-99589999D01*
X127768990Y-99250000D01*
X127634334Y-98573037D01*
X127250865Y-97999135D01*
X126676963Y-97615666D01*
X126170880Y-97515000D01*
X125829120Y-97515000D01*
X125323037Y-97615666D01*
X125010000Y-97824831D01*
X125010000Y-97814801D01*
X125234472Y-97590329D01*
X125297929Y-97547929D01*
X125413551Y-97374889D01*
X125465904Y-97296538D01*
X125484417Y-97203464D01*
X125510000Y-97074852D01*
X125510000Y-97074848D01*
X125524888Y-97000000D01*
X125510000Y-96925152D01*
X125510000Y-93594126D01*
X133215000Y-93594126D01*
X133215000Y-94005874D01*
X133372569Y-94386280D01*
X133663720Y-94677431D01*
X134044126Y-94835000D01*
X134455874Y-94835000D01*
X134836280Y-94677431D01*
X135127431Y-94386280D01*
X135285000Y-94005874D01*
X135285000Y-93594126D01*
X135127431Y-93213720D01*
X134960000Y-93046289D01*
X134960000Y-89114801D01*
X135484473Y-88590329D01*
X135547929Y-88547929D01*
X135703215Y-88315528D01*
X135715904Y-88296538D01*
X135758161Y-88084096D01*
X135760000Y-88074852D01*
X135760000Y-88074848D01*
X135774888Y-88000000D01*
X135760000Y-87925152D01*
X135760000Y-83453711D01*
X135877431Y-83336280D01*
X136035000Y-82955874D01*
X136035000Y-82544126D01*
X135877431Y-82163720D01*
X135586280Y-81872569D01*
X135205874Y-81715000D01*
X134794126Y-81715000D01*
X134413720Y-81872569D01*
X134122569Y-82163720D01*
X133965000Y-82544126D01*
X133965000Y-82955874D01*
X134122569Y-83336280D01*
X134240000Y-83453711D01*
X134240001Y-87685197D01*
X133715530Y-88209669D01*
X133652071Y-88252071D01*
X133484096Y-88503464D01*
X133440000Y-88725149D01*
X133440000Y-88725153D01*
X133425112Y-88800000D01*
X133440000Y-88874847D01*
X133440001Y-93146288D01*
X133372569Y-93213720D01*
X133215000Y-93594126D01*
X125510000Y-93594126D01*
X125510000Y-93314801D01*
X125564802Y-93260000D01*
X130675153Y-93260000D01*
X130750000Y-93274888D01*
X130824847Y-93260000D01*
X130824852Y-93260000D01*
X131046537Y-93215904D01*
X131297929Y-93047929D01*
X131306568Y-93035000D01*
X131455874Y-93035000D01*
X131836280Y-92877431D01*
X132127431Y-92586280D01*
X132285000Y-92205874D01*
X132285000Y-91794126D01*
X132127431Y-91413720D01*
X131836280Y-91122569D01*
X131455874Y-90965000D01*
X131044126Y-90965000D01*
X130663720Y-91122569D01*
X130372569Y-91413720D01*
X130237420Y-91740000D01*
X126035000Y-91740000D01*
X126035000Y-91544126D01*
X125877431Y-91163720D01*
X125586280Y-90872569D01*
X125205874Y-90715000D01*
X124794126Y-90715000D01*
X124413720Y-90872569D01*
X124264293Y-91021996D01*
X124251605Y-91024520D01*
X124203462Y-91034096D01*
X124142467Y-91074852D01*
X123960992Y-91196110D01*
X123840329Y-91015527D01*
X123797929Y-90952071D01*
X123734472Y-90909671D01*
X123637287Y-90812485D01*
X123785000Y-90455874D01*
X123785000Y-90044126D01*
X123627431Y-89663720D01*
X123336280Y-89372569D01*
X122955874Y-89215000D01*
X122544126Y-89215000D01*
X122163720Y-89372569D01*
X121872569Y-89663720D01*
X121715000Y-90044126D01*
X121715000Y-90455874D01*
X121872569Y-90836280D01*
X121985262Y-90948973D01*
X121975112Y-91000000D01*
X121990000Y-91074847D01*
X121990000Y-91074851D01*
X122034096Y-91296536D01*
X122107179Y-91405913D01*
X121483037Y-90988874D01*
X120860280Y-90865000D01*
X120660001Y-90865000D01*
X120660001Y-84620481D01*
X121317767Y-84348026D01*
X121848026Y-83817767D01*
X122135000Y-83124950D01*
X122135000Y-82375050D01*
X121848026Y-81682233D01*
X121317767Y-81151974D01*
X120660001Y-80879519D01*
X120660001Y-71635000D01*
X120860280Y-71635000D01*
X121483037Y-71511126D01*
X122189250Y-71039249D01*
X122459697Y-70634497D01*
X123809672Y-71984473D01*
G36*
X134613914Y-98926153D02*
X135073847Y-99386086D01*
X135566136Y-99589999D01*
X129933864Y-99589999D01*
X130426153Y-99386086D01*
X130886086Y-98926153D01*
X130954909Y-98760000D01*
X134545091Y-98760000D01*
X134613914Y-98926153D01*
X134613914Y-98926153D01*
G37*
X134613914Y-98926153D02*
X135073847Y-99386086D01*
X135566136Y-99589999D01*
X129933864Y-99589999D01*
X130426153Y-99386086D01*
X130886086Y-98926153D01*
X130954909Y-98760000D01*
X134545091Y-98760000D01*
X134613914Y-98926153D01*
G36*
X146040001Y-98478064D02*
X145978839Y-98170582D01*
X145650625Y-97679375D01*
X145159418Y-97351161D01*
X144726256Y-97265000D01*
X144433744Y-97265000D01*
X144213592Y-97308791D01*
X142990331Y-96085530D01*
X142990329Y-96085527D01*
X141940500Y-95035699D01*
X142439722Y-95135000D01*
X144360280Y-95135000D01*
X144983037Y-95011126D01*
X145689250Y-94539249D01*
X146040001Y-94014314D01*
X146040001Y-98478064D01*
X146040001Y-98478064D01*
G37*
X146040001Y-98478064D02*
X145978839Y-98170582D01*
X145650625Y-97679375D01*
X145159418Y-97351161D01*
X144726256Y-97265000D01*
X144433744Y-97265000D01*
X144213592Y-97308791D01*
X142990331Y-96085530D01*
X142990329Y-96085527D01*
X141940500Y-95035699D01*
X142439722Y-95135000D01*
X144360280Y-95135000D01*
X144983037Y-95011126D01*
X145689250Y-94539249D01*
X146040001Y-94014314D01*
X146040001Y-98478064D01*
G36*
X139005527Y-96790329D02*
X139005530Y-96790331D01*
X139480199Y-97265000D01*
X139353744Y-97265000D01*
X139133593Y-97308791D01*
X138760000Y-96935199D01*
X138760000Y-96674848D01*
X138774888Y-96600000D01*
X138764879Y-96549681D01*
X139005527Y-96790329D01*
X139005527Y-96790329D01*
G37*
X139005527Y-96790329D02*
X139005530Y-96790331D01*
X139480199Y-97265000D01*
X139353744Y-97265000D01*
X139133593Y-97308791D01*
X138760000Y-96935199D01*
X138760000Y-96674848D01*
X138774888Y-96600000D01*
X138764879Y-96549681D01*
X139005527Y-96790329D01*
G36*
X141915527Y-97160329D02*
X141915530Y-97160331D01*
X142020199Y-97265000D01*
X141893744Y-97265000D01*
X141673592Y-97308791D01*
X140080331Y-95715530D01*
X140080329Y-95715527D01*
X139760000Y-95395199D01*
X139760000Y-95004801D01*
X141915527Y-97160329D01*
X141915527Y-97160329D01*
G37*
X141915527Y-97160329D02*
X141915530Y-97160331D01*
X142020199Y-97265000D01*
X141893744Y-97265000D01*
X141673592Y-97308791D01*
X140080331Y-95715530D01*
X140080329Y-95715527D01*
X139760000Y-95395199D01*
X139760000Y-95004801D01*
X141915527Y-97160329D01*
G36*
X137240000Y-96914802D02*
X137240000Y-96927761D01*
X136926153Y-96613914D01*
X136795993Y-96560000D01*
X136885199Y-96560000D01*
X137240000Y-96914802D01*
X137240000Y-96914802D01*
G37*
X137240000Y-96914802D02*
X137240000Y-96927761D01*
X136926153Y-96613914D01*
X136795993Y-96560000D01*
X136885199Y-96560000D01*
X137240000Y-96914802D01*
G36*
X117610752Y-71039249D02*
X118316965Y-71511126D01*
X118939722Y-71635000D01*
X119140001Y-71635000D01*
X119140002Y-81194205D01*
X118651974Y-81682233D01*
X118365000Y-82375050D01*
X118365000Y-83124950D01*
X118651974Y-83817767D01*
X119140002Y-84305795D01*
X119140001Y-90865000D01*
X118939722Y-90865000D01*
X118316965Y-90988874D01*
X117610752Y-91460751D01*
X117210000Y-92060518D01*
X117210000Y-70439482D01*
X117610752Y-71039249D01*
X117610752Y-71039249D01*
G37*
X117610752Y-71039249D02*
X118316965Y-71511126D01*
X118939722Y-71635000D01*
X119140001Y-71635000D01*
X119140002Y-81194205D01*
X118651974Y-81682233D01*
X118365000Y-82375050D01*
X118365000Y-83124950D01*
X118651974Y-83817767D01*
X119140002Y-84305795D01*
X119140001Y-90865000D01*
X118939722Y-90865000D01*
X118316965Y-90988874D01*
X117610752Y-91460751D01*
X117210000Y-92060518D01*
X117210000Y-70439482D01*
X117610752Y-71039249D01*
G36*
X146040001Y-91985686D02*
X145689250Y-91460751D01*
X145052069Y-91035000D01*
X145205874Y-91035000D01*
X145586280Y-90877431D01*
X145877431Y-90586280D01*
X146035000Y-90205874D01*
X146035000Y-89794126D01*
X145877431Y-89413720D01*
X145586280Y-89122569D01*
X145205874Y-88965000D01*
X144794126Y-88965000D01*
X144413720Y-89122569D01*
X144122569Y-89413720D01*
X144108448Y-89447810D01*
X144102072Y-89452071D01*
X144059672Y-89515527D01*
X142915529Y-90659671D01*
X142852073Y-90702071D01*
X142809673Y-90765527D01*
X142809672Y-90765528D01*
X142743207Y-90865000D01*
X142439722Y-90865000D01*
X141816965Y-90988874D01*
X141755048Y-91030246D01*
X141510000Y-90785198D01*
X141510000Y-89953711D01*
X141627431Y-89836280D01*
X141785000Y-89455874D01*
X141785000Y-89044126D01*
X141627431Y-88663720D01*
X141336280Y-88372569D01*
X140955874Y-88215000D01*
X140760000Y-88215000D01*
X140760000Y-87564801D01*
X142314802Y-86010000D01*
X144046289Y-86010000D01*
X144163720Y-86127431D01*
X144544126Y-86285000D01*
X144955874Y-86285000D01*
X145336280Y-86127431D01*
X145627431Y-85836280D01*
X145785000Y-85455874D01*
X145785000Y-85044126D01*
X145627431Y-84663720D01*
X145510000Y-84546289D01*
X145510000Y-84020865D01*
X145544126Y-84035000D01*
X145955874Y-84035000D01*
X146040000Y-84000154D01*
X146040001Y-91985686D01*
X146040001Y-91985686D01*
G37*
X146040001Y-91985686D02*
X145689250Y-91460751D01*
X145052069Y-91035000D01*
X145205874Y-91035000D01*
X145586280Y-90877431D01*
X145877431Y-90586280D01*
X146035000Y-90205874D01*
X146035000Y-89794126D01*
X145877431Y-89413720D01*
X145586280Y-89122569D01*
X145205874Y-88965000D01*
X144794126Y-88965000D01*
X144413720Y-89122569D01*
X144122569Y-89413720D01*
X144108448Y-89447810D01*
X144102072Y-89452071D01*
X144059672Y-89515527D01*
X142915529Y-90659671D01*
X142852073Y-90702071D01*
X142809673Y-90765527D01*
X142809672Y-90765528D01*
X142743207Y-90865000D01*
X142439722Y-90865000D01*
X141816965Y-90988874D01*
X141755048Y-91030246D01*
X141510000Y-90785198D01*
X141510000Y-89953711D01*
X141627431Y-89836280D01*
X141785000Y-89455874D01*
X141785000Y-89044126D01*
X141627431Y-88663720D01*
X141336280Y-88372569D01*
X140955874Y-88215000D01*
X140760000Y-88215000D01*
X140760000Y-87564801D01*
X142314802Y-86010000D01*
X144046289Y-86010000D01*
X144163720Y-86127431D01*
X144544126Y-86285000D01*
X144955874Y-86285000D01*
X145336280Y-86127431D01*
X145627431Y-85836280D01*
X145785000Y-85455874D01*
X145785000Y-85044126D01*
X145627431Y-84663720D01*
X145510000Y-84546289D01*
X145510000Y-84020865D01*
X145544126Y-84035000D01*
X145955874Y-84035000D01*
X146040000Y-84000154D01*
X146040001Y-91985686D01*
G36*
X122490001Y-91814802D02*
X122490001Y-91910856D01*
X122296579Y-91621381D01*
X122490001Y-91814802D01*
X122490001Y-91814802D01*
G37*
X122490001Y-91814802D02*
X122490001Y-91910856D01*
X122296579Y-91621381D01*
X122490001Y-91814802D01*
G36*
X143965000Y-79044126D02*
X143965000Y-79210199D01*
X143765530Y-79409669D01*
X143765527Y-79409671D01*
X143515527Y-79659672D01*
X143452072Y-79702071D01*
X143409672Y-79765527D01*
X143409671Y-79765528D01*
X143388951Y-79796538D01*
X143284097Y-79953463D01*
X143265307Y-80047929D01*
X143260000Y-80074607D01*
X143260000Y-78687440D01*
X144112744Y-78687440D01*
X143965000Y-79044126D01*
X143965000Y-79044126D01*
G37*
X143965000Y-79044126D02*
X143965000Y-79210199D01*
X143765530Y-79409669D01*
X143765527Y-79409671D01*
X143515527Y-79659672D01*
X143452072Y-79702071D01*
X143409672Y-79765527D01*
X143409671Y-79765528D01*
X143388951Y-79796538D01*
X143284097Y-79953463D01*
X143265307Y-80047929D01*
X143260000Y-80074607D01*
X143260000Y-78687440D01*
X144112744Y-78687440D01*
X143965000Y-79044126D01*
G36*
X131872569Y-74086280D02*
X132163720Y-74377431D01*
X132544126Y-74535000D01*
X132955874Y-74535000D01*
X133336280Y-74377431D01*
X133430001Y-74283710D01*
X133430000Y-75865153D01*
X133415112Y-75940000D01*
X133430000Y-76014847D01*
X133430000Y-76014851D01*
X133474096Y-76236536D01*
X133642071Y-76487929D01*
X133705530Y-76530331D01*
X135199671Y-78024473D01*
X135242071Y-78087929D01*
X135305527Y-78130329D01*
X135493462Y-78255904D01*
X135541605Y-78265480D01*
X135715148Y-78300000D01*
X135715152Y-78300000D01*
X135790000Y-78314888D01*
X135864848Y-78300000D01*
X139571023Y-78300000D01*
X139426373Y-78359916D01*
X139308942Y-78477347D01*
X137087499Y-78477347D01*
X137012652Y-78462459D01*
X136937805Y-78477347D01*
X136937801Y-78477347D01*
X136716116Y-78521443D01*
X136464724Y-78689418D01*
X136430926Y-78740000D01*
X133574848Y-78740000D01*
X133500000Y-78725112D01*
X133425152Y-78740000D01*
X133425148Y-78740000D01*
X133251605Y-78774520D01*
X133203462Y-78784096D01*
X133142467Y-78824852D01*
X132952071Y-78952071D01*
X132915801Y-79006353D01*
X132877431Y-78913720D01*
X132586280Y-78622569D01*
X132205874Y-78465000D01*
X132039802Y-78465000D01*
X131760000Y-78185199D01*
X131760000Y-73814801D01*
X131760084Y-73814717D01*
X131872569Y-74086280D01*
X131872569Y-74086280D01*
G37*
X131872569Y-74086280D02*
X132163720Y-74377431D01*
X132544126Y-74535000D01*
X132955874Y-74535000D01*
X133336280Y-74377431D01*
X133430001Y-74283710D01*
X133430000Y-75865153D01*
X133415112Y-75940000D01*
X133430000Y-76014847D01*
X133430000Y-76014851D01*
X133474096Y-76236536D01*
X133642071Y-76487929D01*
X133705530Y-76530331D01*
X135199671Y-78024473D01*
X135242071Y-78087929D01*
X135305527Y-78130329D01*
X135493462Y-78255904D01*
X135541605Y-78265480D01*
X135715148Y-78300000D01*
X135715152Y-78300000D01*
X135790000Y-78314888D01*
X135864848Y-78300000D01*
X139571023Y-78300000D01*
X139426373Y-78359916D01*
X139308942Y-78477347D01*
X137087499Y-78477347D01*
X137012652Y-78462459D01*
X136937805Y-78477347D01*
X136937801Y-78477347D01*
X136716116Y-78521443D01*
X136464724Y-78689418D01*
X136430926Y-78740000D01*
X133574848Y-78740000D01*
X133500000Y-78725112D01*
X133425152Y-78740000D01*
X133425148Y-78740000D01*
X133251605Y-78774520D01*
X133203462Y-78784096D01*
X133142467Y-78824852D01*
X132952071Y-78952071D01*
X132915801Y-79006353D01*
X132877431Y-78913720D01*
X132586280Y-78622569D01*
X132205874Y-78465000D01*
X132039802Y-78465000D01*
X131760000Y-78185199D01*
X131760000Y-73814801D01*
X131760084Y-73814717D01*
X131872569Y-74086280D01*
G36*
X138179670Y-76754472D02*
X138196728Y-76780000D01*
X136104802Y-76780000D01*
X134950000Y-75625199D01*
X134950000Y-74014847D01*
X134964888Y-73940000D01*
X134950000Y-73865153D01*
X134950000Y-73865148D01*
X134905904Y-73643463D01*
X134763272Y-73430000D01*
X134855199Y-73430000D01*
X138179670Y-76754472D01*
X138179670Y-76754472D01*
G37*
X138179670Y-76754472D02*
X138196728Y-76780000D01*
X136104802Y-76780000D01*
X134950000Y-75625199D01*
X134950000Y-74014847D01*
X134964888Y-73940000D01*
X134950000Y-73865153D01*
X134950000Y-73865148D01*
X134905904Y-73643463D01*
X134763272Y-73430000D01*
X134855199Y-73430000D01*
X138179670Y-76754472D01*
G36*
X146040000Y-75548817D02*
X146020885Y-75545015D01*
X146040000Y-75516407D01*
X146040000Y-75548817D01*
X146040000Y-75548817D01*
G37*
X146040000Y-75548817D02*
X146020885Y-75545015D01*
X146040000Y-75516407D01*
X146040000Y-75548817D01*
G36*
X142452565Y-74214473D02*
X142494965Y-74277929D01*
X142746357Y-74445904D01*
X142754147Y-74447454D01*
X142680854Y-74557145D01*
X142592765Y-75000000D01*
X142680854Y-75442855D01*
X142725719Y-75510000D01*
X139084802Y-75510000D01*
X136554791Y-72979990D01*
X141218083Y-72979990D01*
X142452565Y-74214473D01*
X142452565Y-74214473D01*
G37*
X142452565Y-74214473D02*
X142494965Y-74277929D01*
X142746357Y-74445904D01*
X142754147Y-74447454D01*
X142680854Y-74557145D01*
X142592765Y-75000000D01*
X142680854Y-75442855D01*
X142725719Y-75510000D01*
X139084802Y-75510000D01*
X136554791Y-72979990D01*
X141218083Y-72979990D01*
X142452565Y-74214473D01*
G36*
X146040000Y-74483593D02*
X145960759Y-74365000D01*
X146040000Y-74246407D01*
X146040000Y-74483593D01*
X146040000Y-74483593D01*
G37*
X146040000Y-74483593D02*
X145960759Y-74365000D01*
X146040000Y-74246407D01*
X146040000Y-74483593D01*
G36*
X146040000Y-73213593D02*
X145960759Y-73095000D01*
X146040000Y-72976407D01*
X146040000Y-73213593D01*
X146040000Y-73213593D01*
G37*
X146040000Y-73213593D02*
X145960759Y-73095000D01*
X146040000Y-72976407D01*
X146040000Y-73213593D01*
G36*
X142439722Y-71635000D02*
X142941755Y-71635000D01*
X142931711Y-71641711D01*
X142680854Y-72017145D01*
X142635061Y-72247365D01*
X142123215Y-71735520D01*
X142080813Y-71672061D01*
X141849703Y-71517638D01*
X142439722Y-71635000D01*
X142439722Y-71635000D01*
G37*
X142439722Y-71635000D02*
X142941755Y-71635000D01*
X142931711Y-71641711D01*
X142680854Y-72017145D01*
X142635061Y-72247365D01*
X142123215Y-71735520D01*
X142080813Y-71672061D01*
X141849703Y-71517638D01*
X142439722Y-71635000D01*
G36*
X146040000Y-71943593D02*
X145838289Y-71641711D01*
X145762731Y-71591225D01*
X145760000Y-71577495D01*
X145760000Y-71174845D01*
X145774888Y-71099998D01*
X145760000Y-71025151D01*
X145760000Y-71025147D01*
X145745931Y-70954419D01*
X146040000Y-70514315D01*
X146040000Y-71943593D01*
X146040000Y-71943593D01*
G37*
X146040000Y-71943593D02*
X145838289Y-71641711D01*
X145762731Y-71591225D01*
X145760000Y-71577495D01*
X145760000Y-71174845D01*
X145774888Y-71099998D01*
X145760000Y-71025151D01*
X145760000Y-71025147D01*
X145745931Y-70954419D01*
X146040000Y-70514315D01*
X146040000Y-71943593D01*
G36*
X141110752Y-71039249D02*
X141796683Y-71497574D01*
X141607736Y-71459990D01*
X141607731Y-71459990D01*
X141532884Y-71445102D01*
X141458037Y-71459990D01*
X140014812Y-71459990D01*
X140840305Y-70634497D01*
X141110752Y-71039249D01*
X141110752Y-71039249D01*
G37*
X141110752Y-71039249D02*
X141796683Y-71497574D01*
X141607736Y-71459990D01*
X141607731Y-71459990D01*
X141532884Y-71445102D01*
X141458037Y-71459990D01*
X140014812Y-71459990D01*
X140840305Y-70634497D01*
X141110752Y-71039249D01*
G36*
X131838913Y-70740000D02*
X131481089Y-70740000D01*
X131660001Y-70472239D01*
X131838913Y-70740000D01*
X131838913Y-70740000D01*
G37*
X131838913Y-70740000D02*
X131481089Y-70740000D01*
X131660001Y-70472239D01*
X131838913Y-70740000D01*
G36*
X134378913Y-70740000D02*
X134021089Y-70740000D01*
X134200001Y-70472239D01*
X134378913Y-70740000D01*
X134378913Y-70740000D01*
G37*
X134378913Y-70740000D02*
X134021089Y-70740000D01*
X134200001Y-70472239D01*
X134378913Y-70740000D01*
G36*
X140638875Y-68666964D02*
X140616075Y-68781588D01*
X140603464Y-68784096D01*
X140352072Y-68952071D01*
X140309672Y-69015527D01*
X138585200Y-70740000D01*
X136561089Y-70740000D01*
X136868840Y-70279418D01*
X136984093Y-69700000D01*
X136868840Y-69120582D01*
X136540626Y-68629375D01*
X136049419Y-68301161D01*
X135616257Y-68215000D01*
X135323745Y-68215000D01*
X134890583Y-68301161D01*
X134399376Y-68629375D01*
X134200001Y-68927761D01*
X134000626Y-68629375D01*
X133509419Y-68301161D01*
X133076257Y-68215000D01*
X132783745Y-68215000D01*
X132350583Y-68301161D01*
X131859376Y-68629375D01*
X131660001Y-68927761D01*
X131460626Y-68629375D01*
X130969419Y-68301161D01*
X130536257Y-68215000D01*
X130243745Y-68215000D01*
X129810583Y-68301161D01*
X129319376Y-68629375D01*
X129307185Y-68647619D01*
X129298158Y-68602235D01*
X129157810Y-68392191D01*
X128947766Y-68251843D01*
X128737405Y-68210000D01*
X140944209Y-68210000D01*
X140638875Y-68666964D01*
X140638875Y-68666964D01*
G37*
X140638875Y-68666964D02*
X140616075Y-68781588D01*
X140603464Y-68784096D01*
X140352072Y-68952071D01*
X140309672Y-69015527D01*
X138585200Y-70740000D01*
X136561089Y-70740000D01*
X136868840Y-70279418D01*
X136984093Y-69700000D01*
X136868840Y-69120582D01*
X136540626Y-68629375D01*
X136049419Y-68301161D01*
X135616257Y-68215000D01*
X135323745Y-68215000D01*
X134890583Y-68301161D01*
X134399376Y-68629375D01*
X134200001Y-68927761D01*
X134000626Y-68629375D01*
X133509419Y-68301161D01*
X133076257Y-68215000D01*
X132783745Y-68215000D01*
X132350583Y-68301161D01*
X131859376Y-68629375D01*
X131660001Y-68927761D01*
X131460626Y-68629375D01*
X130969419Y-68301161D01*
X130536257Y-68215000D01*
X130243745Y-68215000D01*
X129810583Y-68301161D01*
X129319376Y-68629375D01*
X129307185Y-68647619D01*
X129298158Y-68602235D01*
X129157810Y-68392191D01*
X128947766Y-68251843D01*
X128737405Y-68210000D01*
X140944209Y-68210000D01*
X140638875Y-68666964D01*
G36*
X126752236Y-68251843D02*
X126542192Y-68392191D01*
X126401844Y-68602235D01*
X126352561Y-68850000D01*
X126352561Y-70550000D01*
X126390354Y-70740000D01*
X124714803Y-70740000D01*
X122990332Y-69015530D01*
X122947930Y-68952071D01*
X122696538Y-68784096D01*
X122683927Y-68781588D01*
X122661127Y-68666964D01*
X122355793Y-68210000D01*
X126962597Y-68210000D01*
X126752236Y-68251843D01*
X126752236Y-68251843D01*
G37*
X126752236Y-68251843D02*
X126542192Y-68392191D01*
X126401844Y-68602235D01*
X126352561Y-68850000D01*
X126352561Y-70550000D01*
X126390354Y-70740000D01*
X124714803Y-70740000D01*
X122990332Y-69015530D01*
X122947930Y-68952071D01*
X122696538Y-68784096D01*
X122683927Y-68781588D01*
X122661127Y-68666964D01*
X122355793Y-68210000D01*
X126962597Y-68210000D01*
X126752236Y-68251843D01*
G36*
X117210000Y-68560518D02*
X117210000Y-68319930D01*
X117225896Y-68240015D01*
X117231551Y-68231552D01*
X117240016Y-68225896D01*
X117319930Y-68210000D01*
X117444209Y-68210000D01*
X117210000Y-68560518D01*
X117210000Y-68560518D01*
G37*
X117210000Y-68560518D02*
X117210000Y-68319930D01*
X117225896Y-68240015D01*
X117231551Y-68231552D01*
X117240016Y-68225896D01*
X117319930Y-68210000D01*
X117444209Y-68210000D01*
X117210000Y-68560518D01*
G36*
X146009985Y-68225896D02*
X146018448Y-68231551D01*
X146024104Y-68240016D01*
X146040000Y-68319930D01*
X146040000Y-68485685D01*
X145855793Y-68210000D01*
X145930070Y-68210000D01*
X146009985Y-68225896D01*
X146009985Y-68225896D01*
G37*
X146009985Y-68225896D02*
X146018448Y-68231551D01*
X146024104Y-68240016D01*
X146040000Y-68319930D01*
X146040000Y-68485685D01*
X145855793Y-68210000D01*
X145930070Y-68210000D01*
X146009985Y-68225896D01*
M02*
