G04 #@! TF.GenerationSoftware,KiCad,Pcbnew,(5.0.0)*
G04 #@! TF.CreationDate,2020-03-15T13:15:32-04:00*
G04 #@! TF.ProjectId,Attiny_IMU_LCD_ETC,417474696E795F494D555F4C43445F45,rev?*
G04 #@! TF.SameCoordinates,Original*
G04 #@! TF.FileFunction,Legend,Top*
G04 #@! TF.FilePolarity,Positive*
%FSLAX46Y46*%
G04 Gerber Fmt 4.6, Leading zero omitted, Abs format (unit mm)*
G04 Created by KiCad (PCBNEW (5.0.0)) date 03/15/20 13:15:32*
%MOMM*%
%LPD*%
G01*
G04 APERTURE LIST*
%ADD10C,0.100000*%
%ADD11C,0.200000*%
%ADD12C,0.120000*%
%ADD13C,0.300000*%
%ADD14C,0.150000*%
G04 APERTURE END LIST*
D10*
X143892857Y-96823809D02*
X143964285Y-96861904D01*
X144083333Y-96861904D01*
X144130952Y-96823809D01*
X144154761Y-96785714D01*
X144178571Y-96709523D01*
X144178571Y-96633333D01*
X144154761Y-96557142D01*
X144130952Y-96519047D01*
X144083333Y-96480952D01*
X143988095Y-96442857D01*
X143940476Y-96404761D01*
X143916666Y-96366666D01*
X143892857Y-96290476D01*
X143892857Y-96214285D01*
X143916666Y-96138095D01*
X143940476Y-96100000D01*
X143988095Y-96061904D01*
X144107142Y-96061904D01*
X144178571Y-96100000D01*
X144392857Y-96861904D02*
X144392857Y-96061904D01*
X144511904Y-96061904D01*
X144583333Y-96100000D01*
X144630952Y-96176190D01*
X144654761Y-96252380D01*
X144678571Y-96404761D01*
X144678571Y-96519047D01*
X144654761Y-96671428D01*
X144630952Y-96747619D01*
X144583333Y-96823809D01*
X144511904Y-96861904D01*
X144392857Y-96861904D01*
X144869047Y-96633333D02*
X145107142Y-96633333D01*
X144821428Y-96861904D02*
X144988095Y-96061904D01*
X145154761Y-96861904D01*
X143990476Y-103761904D02*
X143752380Y-103761904D01*
X143752380Y-102961904D01*
X144157142Y-103342857D02*
X144323809Y-103342857D01*
X144395238Y-103761904D02*
X144157142Y-103761904D01*
X144157142Y-102961904D01*
X144395238Y-102961904D01*
X144609523Y-103761904D02*
X144609523Y-102961904D01*
X144728571Y-102961904D01*
X144800000Y-103000000D01*
X144847619Y-103076190D01*
X144871428Y-103152380D01*
X144895238Y-103304761D01*
X144895238Y-103419047D01*
X144871428Y-103571428D01*
X144847619Y-103647619D01*
X144800000Y-103723809D01*
X144728571Y-103761904D01*
X144609523Y-103761904D01*
X145085714Y-103038095D02*
X145109523Y-103000000D01*
X145157142Y-102961904D01*
X145276190Y-102961904D01*
X145323809Y-103000000D01*
X145347619Y-103038095D01*
X145371428Y-103114285D01*
X145371428Y-103190476D01*
X145347619Y-103304761D01*
X145061904Y-103761904D01*
X145371428Y-103761904D01*
X141440476Y-103761904D02*
X141202380Y-103761904D01*
X141202380Y-102961904D01*
X141607142Y-103342857D02*
X141773809Y-103342857D01*
X141845238Y-103761904D02*
X141607142Y-103761904D01*
X141607142Y-102961904D01*
X141845238Y-102961904D01*
X142059523Y-103761904D02*
X142059523Y-102961904D01*
X142178571Y-102961904D01*
X142250000Y-103000000D01*
X142297619Y-103076190D01*
X142321428Y-103152380D01*
X142345238Y-103304761D01*
X142345238Y-103419047D01*
X142321428Y-103571428D01*
X142297619Y-103647619D01*
X142250000Y-103723809D01*
X142178571Y-103761904D01*
X142059523Y-103761904D01*
X142821428Y-103761904D02*
X142535714Y-103761904D01*
X142678571Y-103761904D02*
X142678571Y-102961904D01*
X142630952Y-103076190D01*
X142583333Y-103152380D01*
X142535714Y-103190476D01*
D11*
X118931666Y-96702380D02*
X119056666Y-95702380D01*
X119628095Y-95702380D01*
X119765000Y-95750000D01*
X119830476Y-95797619D01*
X119890000Y-95892857D01*
X119872142Y-96035714D01*
X119788809Y-96130952D01*
X119711428Y-96178571D01*
X119562619Y-96226190D01*
X118991190Y-96226190D01*
X120842380Y-95702380D02*
X121128095Y-95702380D01*
X121265000Y-95750000D01*
X121395952Y-95845238D01*
X121443571Y-96035714D01*
X121401904Y-96369047D01*
X121306666Y-96559523D01*
X121151904Y-96654761D01*
X121003095Y-96702380D01*
X120717380Y-96702380D01*
X120580476Y-96654761D01*
X120449523Y-96559523D01*
X120401904Y-96369047D01*
X120443571Y-96035714D01*
X120538809Y-95845238D01*
X120693571Y-95750000D01*
X120842380Y-95702380D01*
X121985238Y-95702380D02*
X122217380Y-96702380D01*
X122592380Y-95988095D01*
X122788809Y-96702380D01*
X123270952Y-95702380D01*
X123782857Y-96178571D02*
X124282857Y-96178571D01*
X124431666Y-96702380D02*
X123717380Y-96702380D01*
X123842380Y-95702380D01*
X124556666Y-95702380D01*
X125931666Y-96702380D02*
X125491190Y-96226190D01*
X125074523Y-96702380D02*
X125199523Y-95702380D01*
X125770952Y-95702380D01*
X125907857Y-95750000D01*
X125973333Y-95797619D01*
X126032857Y-95892857D01*
X126015000Y-96035714D01*
X125931666Y-96130952D01*
X125854285Y-96178571D01*
X125705476Y-96226190D01*
X125134047Y-96226190D01*
D10*
X139119047Y-96100000D02*
X139071428Y-96061904D01*
X139000000Y-96061904D01*
X138928571Y-96100000D01*
X138880952Y-96176190D01*
X138857142Y-96252380D01*
X138833333Y-96404761D01*
X138833333Y-96519047D01*
X138857142Y-96671428D01*
X138880952Y-96747619D01*
X138928571Y-96823809D01*
X139000000Y-96861904D01*
X139047619Y-96861904D01*
X139119047Y-96823809D01*
X139142857Y-96785714D01*
X139142857Y-96519047D01*
X139047619Y-96519047D01*
X139357142Y-96861904D02*
X139357142Y-96061904D01*
X139642857Y-96861904D01*
X139642857Y-96061904D01*
X139880952Y-96861904D02*
X139880952Y-96061904D01*
X140000000Y-96061904D01*
X140071428Y-96100000D01*
X140119047Y-96176190D01*
X140142857Y-96252380D01*
X140166666Y-96404761D01*
X140166666Y-96519047D01*
X140142857Y-96671428D01*
X140119047Y-96747619D01*
X140071428Y-96823809D01*
X140000000Y-96861904D01*
X139880952Y-96861904D01*
X138733333Y-102961904D02*
X138900000Y-103761904D01*
X139066666Y-102961904D01*
X139519047Y-103685714D02*
X139495238Y-103723809D01*
X139423809Y-103761904D01*
X139376190Y-103761904D01*
X139304761Y-103723809D01*
X139257142Y-103647619D01*
X139233333Y-103571428D01*
X139209523Y-103419047D01*
X139209523Y-103304761D01*
X139233333Y-103152380D01*
X139257142Y-103076190D01*
X139304761Y-103000000D01*
X139376190Y-102961904D01*
X139423809Y-102961904D01*
X139495238Y-103000000D01*
X139519047Y-103038095D01*
X140019047Y-103685714D02*
X139995238Y-103723809D01*
X139923809Y-103761904D01*
X139876190Y-103761904D01*
X139804761Y-103723809D01*
X139757142Y-103647619D01*
X139733333Y-103571428D01*
X139709523Y-103419047D01*
X139709523Y-103304761D01*
X139733333Y-103152380D01*
X139757142Y-103076190D01*
X139804761Y-103000000D01*
X139876190Y-102961904D01*
X139923809Y-102961904D01*
X139995238Y-103000000D01*
X140019047Y-103038095D01*
X141404761Y-96823809D02*
X141476190Y-96861904D01*
X141595238Y-96861904D01*
X141642857Y-96823809D01*
X141666666Y-96785714D01*
X141690476Y-96709523D01*
X141690476Y-96633333D01*
X141666666Y-96557142D01*
X141642857Y-96519047D01*
X141595238Y-96480952D01*
X141500000Y-96442857D01*
X141452380Y-96404761D01*
X141428571Y-96366666D01*
X141404761Y-96290476D01*
X141404761Y-96214285D01*
X141428571Y-96138095D01*
X141452380Y-96100000D01*
X141500000Y-96061904D01*
X141619047Y-96061904D01*
X141690476Y-96100000D01*
X142190476Y-96785714D02*
X142166666Y-96823809D01*
X142095238Y-96861904D01*
X142047619Y-96861904D01*
X141976190Y-96823809D01*
X141928571Y-96747619D01*
X141904761Y-96671428D01*
X141880952Y-96519047D01*
X141880952Y-96404761D01*
X141904761Y-96252380D01*
X141928571Y-96176190D01*
X141976190Y-96100000D01*
X142047619Y-96061904D01*
X142095238Y-96061904D01*
X142166666Y-96100000D01*
X142190476Y-96138095D01*
X142642857Y-96861904D02*
X142404761Y-96861904D01*
X142404761Y-96061904D01*
D12*
G04 #@! TO.C,C1*
X133000000Y-86400000D02*
X132000000Y-86400000D01*
X132000000Y-88100000D02*
X133000000Y-88100000D01*
G04 #@! TO.C,R1*
X134370000Y-76800000D02*
X134370000Y-75600000D01*
X136130000Y-75600000D02*
X136130000Y-76800000D01*
G04 #@! TO.C,R2*
X133630000Y-75650000D02*
X133630000Y-76850000D01*
X131870000Y-76850000D02*
X131870000Y-75650000D01*
G04 #@! TO.C,R3*
X124400000Y-89120000D02*
X125600000Y-89120000D01*
X125600000Y-90880000D02*
X124400000Y-90880000D01*
D10*
G04 #@! TO.C,SW1*
X116780000Y-99250000D02*
X116780000Y-97650000D01*
X116780000Y-97200000D02*
X116780000Y-97650000D01*
X116780000Y-97650000D02*
X116780000Y-97200000D01*
X116780000Y-97200000D02*
X127230000Y-97200000D01*
X116780000Y-101300000D02*
X116780000Y-99250000D01*
X116780000Y-101300000D02*
X126830000Y-101300000D01*
X127580000Y-99250000D02*
X127580000Y-97200000D01*
X127580000Y-97200000D02*
X127230000Y-97200000D01*
X127580000Y-99250000D02*
X127580000Y-101250000D01*
X127580000Y-101250000D02*
X127580000Y-101300000D01*
X127580000Y-101300000D02*
X126780000Y-101300000D01*
D12*
G04 #@! TO.C,SW2*
X136250000Y-101000000D02*
X136250000Y-99500000D01*
X135000000Y-97000000D02*
X130500000Y-97000000D01*
X129250000Y-99500000D02*
X129250000Y-101000000D01*
X130500000Y-103500000D02*
X135000000Y-103500000D01*
D13*
G04 #@! TO.C,U1*
X116650001Y-94600000D02*
X116650001Y-68200000D01*
X146650001Y-68200000D02*
X146650001Y-94600000D01*
X135450001Y-95100000D02*
X123750001Y-95100000D01*
X117150001Y-95100000D02*
X123750001Y-95100000D01*
X117150001Y-95100000D02*
G75*
G02X116650001Y-94600000I0J500000D01*
G01*
X146150001Y-95100000D02*
X135450001Y-95100000D01*
X146650001Y-94600000D02*
G75*
G02X146150001Y-95100000I-500000J0D01*
G01*
X134450001Y-95100000D02*
X134650001Y-95100000D01*
X132250001Y-95100000D02*
X134450001Y-95100000D01*
X116650001Y-68200000D02*
G75*
G02X117150001Y-67700000I500000J0D01*
G01*
X117150001Y-67700000D02*
X127850001Y-67700000D01*
X146150001Y-67700000D02*
G75*
G02X146650001Y-68200000I0J-500000D01*
G01*
X146150001Y-67700000D02*
X139550001Y-67700000D01*
X127850001Y-67700000D02*
X139550001Y-67700000D01*
D12*
X136800001Y-71030000D02*
X136800001Y-68370000D01*
X129120001Y-71030000D02*
X136800001Y-71030000D01*
X129120001Y-68370000D02*
X136800001Y-68370000D01*
X129120001Y-71030000D02*
X129120001Y-68370000D01*
X127850001Y-71030000D02*
X126520001Y-71030000D01*
X126520001Y-71030000D02*
X126520001Y-69700000D01*
D10*
G04 #@! TO.C,U3*
X129923607Y-88650000D02*
G75*
G03X129923607Y-88650000I-223607J0D01*
G01*
X129841421Y-88650000D02*
G75*
G03X129841421Y-88650000I-141421J0D01*
G01*
X130541421Y-89250000D02*
G75*
G03X130541421Y-89250000I-141421J0D01*
G01*
D14*
X129700000Y-88650000D02*
X129700000Y-88750000D01*
X135400000Y-88650000D02*
X135400000Y-88850000D01*
X135300000Y-93825000D02*
X135300000Y-93680000D01*
X129700000Y-93850000D02*
X129700000Y-93650000D01*
X129700000Y-88650000D02*
X135400000Y-88650000D01*
X129725000Y-93850000D02*
X135300000Y-93850000D01*
D12*
G04 #@! TO.C,D1*
X117300000Y-102050000D02*
X120100000Y-102050000D01*
X117300000Y-103450000D02*
X120100000Y-103450000D01*
X117300000Y-102050000D02*
X117300000Y-103450000D01*
G04 #@! TO.C,D2*
X122700000Y-102050000D02*
X122700000Y-103450000D01*
X122700000Y-103450000D02*
X125500000Y-103450000D01*
X122700000Y-102050000D02*
X125500000Y-102050000D01*
D10*
G04 #@! TO.C,U4*
X145100000Y-86900000D02*
X145100000Y-87120000D01*
X144380000Y-86900000D02*
X145100000Y-86900000D01*
X145100000Y-89600000D02*
X144380000Y-89600000D01*
X145100000Y-89380000D02*
X145100000Y-89600000D01*
X141900000Y-89600000D02*
X141900000Y-89380000D01*
X141900000Y-89600000D02*
X142620000Y-89600000D01*
X141800000Y-86900000D02*
X142620000Y-86900000D01*
D12*
G04 #@! TO.C,J2*
X138170000Y-102620000D02*
X138170000Y-101290000D01*
X139500000Y-102620000D02*
X138170000Y-102620000D01*
X138170000Y-100020000D02*
X138170000Y-97420000D01*
X140770000Y-100020000D02*
X138170000Y-100020000D01*
X140770000Y-102620000D02*
X140770000Y-100020000D01*
X138170000Y-97420000D02*
X145910000Y-97420000D01*
X140770000Y-102620000D02*
X145910000Y-102620000D01*
X145910000Y-102620000D02*
X145910000Y-97420000D01*
G04 #@! TO.C,C1*
D14*
X129333333Y-87607142D02*
X129285714Y-87654761D01*
X129142857Y-87702380D01*
X129047619Y-87702380D01*
X128904761Y-87654761D01*
X128809523Y-87559523D01*
X128761904Y-87464285D01*
X128714285Y-87273809D01*
X128714285Y-87130952D01*
X128761904Y-86940476D01*
X128809523Y-86845238D01*
X128904761Y-86750000D01*
X129047619Y-86702380D01*
X129142857Y-86702380D01*
X129285714Y-86750000D01*
X129333333Y-86797619D01*
X130285714Y-87702380D02*
X129714285Y-87702380D01*
X130000000Y-87702380D02*
X130000000Y-86702380D01*
X129904761Y-86845238D01*
X129809523Y-86940476D01*
X129714285Y-86988095D01*
G04 #@! TO.C,R1*
X137452380Y-76366666D02*
X136976190Y-76700000D01*
X137452380Y-76938095D02*
X136452380Y-76938095D01*
X136452380Y-76557142D01*
X136500000Y-76461904D01*
X136547619Y-76414285D01*
X136642857Y-76366666D01*
X136785714Y-76366666D01*
X136880952Y-76414285D01*
X136928571Y-76461904D01*
X136976190Y-76557142D01*
X136976190Y-76938095D01*
X137452380Y-75414285D02*
X137452380Y-75985714D01*
X137452380Y-75700000D02*
X136452380Y-75700000D01*
X136595238Y-75795238D01*
X136690476Y-75890476D01*
X136738095Y-75985714D01*
G04 #@! TO.C,R2*
X131552380Y-76416666D02*
X131076190Y-76750000D01*
X131552380Y-76988095D02*
X130552380Y-76988095D01*
X130552380Y-76607142D01*
X130600000Y-76511904D01*
X130647619Y-76464285D01*
X130742857Y-76416666D01*
X130885714Y-76416666D01*
X130980952Y-76464285D01*
X131028571Y-76511904D01*
X131076190Y-76607142D01*
X131076190Y-76988095D01*
X130647619Y-76035714D02*
X130600000Y-75988095D01*
X130552380Y-75892857D01*
X130552380Y-75654761D01*
X130600000Y-75559523D01*
X130647619Y-75511904D01*
X130742857Y-75464285D01*
X130838095Y-75464285D01*
X130980952Y-75511904D01*
X131552380Y-76083333D01*
X131552380Y-75464285D01*
G04 #@! TO.C,R3*
X124833333Y-88802380D02*
X124500000Y-88326190D01*
X124261904Y-88802380D02*
X124261904Y-87802380D01*
X124642857Y-87802380D01*
X124738095Y-87850000D01*
X124785714Y-87897619D01*
X124833333Y-87992857D01*
X124833333Y-88135714D01*
X124785714Y-88230952D01*
X124738095Y-88278571D01*
X124642857Y-88326190D01*
X124261904Y-88326190D01*
X125166666Y-87802380D02*
X125785714Y-87802380D01*
X125452380Y-88183333D01*
X125595238Y-88183333D01*
X125690476Y-88230952D01*
X125738095Y-88278571D01*
X125785714Y-88373809D01*
X125785714Y-88611904D01*
X125738095Y-88707142D01*
X125690476Y-88754761D01*
X125595238Y-88802380D01*
X125309523Y-88802380D01*
X125214285Y-88754761D01*
X125166666Y-88707142D01*
G04 #@! TO.C,SW1*
X121166666Y-99654761D02*
X121309523Y-99702380D01*
X121547619Y-99702380D01*
X121642857Y-99654761D01*
X121690476Y-99607142D01*
X121738095Y-99511904D01*
X121738095Y-99416666D01*
X121690476Y-99321428D01*
X121642857Y-99273809D01*
X121547619Y-99226190D01*
X121357142Y-99178571D01*
X121261904Y-99130952D01*
X121214285Y-99083333D01*
X121166666Y-98988095D01*
X121166666Y-98892857D01*
X121214285Y-98797619D01*
X121261904Y-98750000D01*
X121357142Y-98702380D01*
X121595238Y-98702380D01*
X121738095Y-98750000D01*
X122071428Y-98702380D02*
X122309523Y-99702380D01*
X122500000Y-98988095D01*
X122690476Y-99702380D01*
X122928571Y-98702380D01*
X123833333Y-99702380D02*
X123261904Y-99702380D01*
X123547619Y-99702380D02*
X123547619Y-98702380D01*
X123452380Y-98845238D01*
X123357142Y-98940476D01*
X123261904Y-98988095D01*
G04 #@! TO.C,SW2*
X131416666Y-100404761D02*
X131559523Y-100452380D01*
X131797619Y-100452380D01*
X131892857Y-100404761D01*
X131940476Y-100357142D01*
X131988095Y-100261904D01*
X131988095Y-100166666D01*
X131940476Y-100071428D01*
X131892857Y-100023809D01*
X131797619Y-99976190D01*
X131607142Y-99928571D01*
X131511904Y-99880952D01*
X131464285Y-99833333D01*
X131416666Y-99738095D01*
X131416666Y-99642857D01*
X131464285Y-99547619D01*
X131511904Y-99500000D01*
X131607142Y-99452380D01*
X131845238Y-99452380D01*
X131988095Y-99500000D01*
X132321428Y-99452380D02*
X132559523Y-100452380D01*
X132750000Y-99738095D01*
X132940476Y-100452380D01*
X133178571Y-99452380D01*
X133511904Y-99547619D02*
X133559523Y-99500000D01*
X133654761Y-99452380D01*
X133892857Y-99452380D01*
X133988095Y-99500000D01*
X134035714Y-99547619D01*
X134083333Y-99642857D01*
X134083333Y-99738095D01*
X134035714Y-99880952D01*
X133464285Y-100452380D01*
X134083333Y-100452380D01*
G04 #@! TO.C,U1*
X123738095Y-68952380D02*
X123738095Y-69761904D01*
X123785714Y-69857142D01*
X123833333Y-69904761D01*
X123928571Y-69952380D01*
X124119047Y-69952380D01*
X124214285Y-69904761D01*
X124261904Y-69857142D01*
X124309523Y-69761904D01*
X124309523Y-68952380D01*
X125309523Y-69952380D02*
X124738095Y-69952380D01*
X125023809Y-69952380D02*
X125023809Y-68952380D01*
X124928571Y-69095238D01*
X124833333Y-69190476D01*
X124738095Y-69238095D01*
X122745239Y-85404761D02*
X121602381Y-85404761D01*
X122173810Y-85404761D02*
X122173810Y-83404761D01*
X121983334Y-83690476D01*
X121792858Y-83880952D01*
X121602381Y-83976190D01*
X123602381Y-85214285D02*
X123697620Y-85309523D01*
X123602381Y-85404761D01*
X123507143Y-85309523D01*
X123602381Y-85214285D01*
X123602381Y-85404761D01*
X125507143Y-83404761D02*
X124554762Y-83404761D01*
X124459524Y-84357142D01*
X124554762Y-84261904D01*
X124745239Y-84166666D01*
X125221429Y-84166666D01*
X125411905Y-84261904D01*
X125507143Y-84357142D01*
X125602381Y-84547619D01*
X125602381Y-85023809D01*
X125507143Y-85214285D01*
X125411905Y-85309523D01*
X125221429Y-85404761D01*
X124745239Y-85404761D01*
X124554762Y-85309523D01*
X124459524Y-85214285D01*
X127316667Y-84071428D02*
X127316667Y-85404761D01*
X126840477Y-83309523D02*
X126364286Y-84738095D01*
X127602381Y-84738095D01*
X128269048Y-83404761D02*
X128269048Y-83785714D01*
X129030953Y-83404761D02*
X129030953Y-83785714D01*
X132459524Y-85404761D02*
X131316667Y-85404761D01*
X131888096Y-85404761D02*
X131888096Y-83404761D01*
X131697620Y-83690476D01*
X131507143Y-83880952D01*
X131316667Y-83976190D01*
X133221429Y-83595238D02*
X133316667Y-83500000D01*
X133507143Y-83404761D01*
X133983334Y-83404761D01*
X134173810Y-83500000D01*
X134269048Y-83595238D01*
X134364286Y-83785714D01*
X134364286Y-83976190D01*
X134269048Y-84261904D01*
X133126191Y-85404761D01*
X134364286Y-85404761D01*
X135507143Y-84261904D02*
X135316667Y-84166666D01*
X135221429Y-84071428D01*
X135126191Y-83880952D01*
X135126191Y-83785714D01*
X135221429Y-83595238D01*
X135316667Y-83500000D01*
X135507143Y-83404761D01*
X135888096Y-83404761D01*
X136078572Y-83500000D01*
X136173810Y-83595238D01*
X136269048Y-83785714D01*
X136269048Y-83880952D01*
X136173810Y-84071428D01*
X136078572Y-84166666D01*
X135888096Y-84261904D01*
X135507143Y-84261904D01*
X135316667Y-84357142D01*
X135221429Y-84452380D01*
X135126191Y-84642857D01*
X135126191Y-85023809D01*
X135221429Y-85214285D01*
X135316667Y-85309523D01*
X135507143Y-85404761D01*
X135888096Y-85404761D01*
X136078572Y-85309523D01*
X136173810Y-85214285D01*
X136269048Y-85023809D01*
X136269048Y-84642857D01*
X136173810Y-84452380D01*
X136078572Y-84357142D01*
X135888096Y-84261904D01*
X136935715Y-85404761D02*
X137983334Y-84071428D01*
X136935715Y-84071428D02*
X137983334Y-85404761D01*
X139602381Y-83404761D02*
X139221429Y-83404761D01*
X139030953Y-83500000D01*
X138935715Y-83595238D01*
X138745239Y-83880952D01*
X138650001Y-84261904D01*
X138650001Y-85023809D01*
X138745239Y-85214285D01*
X138840477Y-85309523D01*
X139030953Y-85404761D01*
X139411905Y-85404761D01*
X139602381Y-85309523D01*
X139697620Y-85214285D01*
X139792858Y-85023809D01*
X139792858Y-84547619D01*
X139697620Y-84357142D01*
X139602381Y-84261904D01*
X139411905Y-84166666D01*
X139030953Y-84166666D01*
X138840477Y-84261904D01*
X138745239Y-84357142D01*
X138650001Y-84547619D01*
X141507143Y-84071428D02*
X141507143Y-85404761D01*
X141030953Y-83309523D02*
X140554762Y-84738095D01*
X141792858Y-84738095D01*
X122030953Y-79904761D02*
X122411905Y-79904761D01*
X122602381Y-80000000D01*
X122792858Y-80190476D01*
X122888096Y-80571428D01*
X122888096Y-81238095D01*
X122792858Y-81619047D01*
X122602381Y-81809523D01*
X122411905Y-81904761D01*
X122030953Y-81904761D01*
X121840477Y-81809523D01*
X121650001Y-81619047D01*
X121554762Y-81238095D01*
X121554762Y-80571428D01*
X121650001Y-80190476D01*
X121840477Y-80000000D01*
X122030953Y-79904761D01*
X124697620Y-81904761D02*
X123745239Y-81904761D01*
X123745239Y-79904761D01*
X125364286Y-80857142D02*
X126030953Y-80857142D01*
X126316667Y-81904761D02*
X125364286Y-81904761D01*
X125364286Y-79904761D01*
X126316667Y-79904761D01*
X127173810Y-81904761D02*
X127173810Y-79904761D01*
X127650001Y-79904761D01*
X127935715Y-80000000D01*
X128126191Y-80190476D01*
X128221429Y-80380952D01*
X128316667Y-80761904D01*
X128316667Y-81047619D01*
X128221429Y-81428571D01*
X128126191Y-81619047D01*
X127935715Y-81809523D01*
X127650001Y-81904761D01*
X127173810Y-81904761D01*
X130697620Y-81904761D02*
X130697620Y-79904761D01*
X131173810Y-79904761D01*
X131459524Y-80000000D01*
X131650001Y-80190476D01*
X131745239Y-80380952D01*
X131840477Y-80761904D01*
X131840477Y-81047619D01*
X131745239Y-81428571D01*
X131650001Y-81619047D01*
X131459524Y-81809523D01*
X131173810Y-81904761D01*
X130697620Y-81904761D01*
X132697620Y-81904761D02*
X132697620Y-79904761D01*
X133554762Y-81809523D02*
X133840477Y-81904761D01*
X134316667Y-81904761D01*
X134507143Y-81809523D01*
X134602381Y-81714285D01*
X134697620Y-81523809D01*
X134697620Y-81333333D01*
X134602381Y-81142857D01*
X134507143Y-81047619D01*
X134316667Y-80952380D01*
X133935715Y-80857142D01*
X133745239Y-80761904D01*
X133650001Y-80666666D01*
X133554762Y-80476190D01*
X133554762Y-80285714D01*
X133650001Y-80095238D01*
X133745239Y-80000000D01*
X133935715Y-79904761D01*
X134411905Y-79904761D01*
X134697620Y-80000000D01*
X135554762Y-81904761D02*
X135554762Y-79904761D01*
X136316667Y-79904761D01*
X136507143Y-80000000D01*
X136602381Y-80095238D01*
X136697620Y-80285714D01*
X136697620Y-80571428D01*
X136602381Y-80761904D01*
X136507143Y-80857142D01*
X136316667Y-80952380D01*
X135554762Y-80952380D01*
X138507143Y-81904761D02*
X137554762Y-81904761D01*
X137554762Y-79904761D01*
X139078572Y-81333333D02*
X140030953Y-81333333D01*
X138888096Y-81904761D02*
X139554762Y-79904761D01*
X140221429Y-81904761D01*
X141269048Y-80952380D02*
X141269048Y-81904761D01*
X140602381Y-79904761D02*
X141269048Y-80952380D01*
X141935715Y-79904761D01*
X136054762Y-74114285D02*
X136102381Y-73971428D01*
X136102381Y-73733333D01*
X136054762Y-73638095D01*
X136007143Y-73590476D01*
X135911905Y-73542857D01*
X135816667Y-73542857D01*
X135721429Y-73590476D01*
X135673810Y-73638095D01*
X135626191Y-73733333D01*
X135578572Y-73923809D01*
X135530953Y-74019047D01*
X135483334Y-74066666D01*
X135388096Y-74114285D01*
X135292858Y-74114285D01*
X135197620Y-74066666D01*
X135150001Y-74019047D01*
X135102381Y-73923809D01*
X135102381Y-73685714D01*
X135150001Y-73542857D01*
X136102381Y-73114285D02*
X135102381Y-73114285D01*
X135102381Y-72876190D01*
X135150001Y-72733333D01*
X135245239Y-72638095D01*
X135340477Y-72590476D01*
X135530953Y-72542857D01*
X135673810Y-72542857D01*
X135864286Y-72590476D01*
X135959524Y-72638095D01*
X136054762Y-72733333D01*
X136102381Y-72876190D01*
X136102381Y-73114285D01*
X135816667Y-72161904D02*
X135816667Y-71685714D01*
X136102381Y-72257142D02*
X135102381Y-71923809D01*
X136102381Y-71590476D01*
X133254762Y-74090476D02*
X133302381Y-73947619D01*
X133302381Y-73709523D01*
X133254762Y-73614285D01*
X133207143Y-73566666D01*
X133111905Y-73519047D01*
X133016667Y-73519047D01*
X132921429Y-73566666D01*
X132873810Y-73614285D01*
X132826191Y-73709523D01*
X132778572Y-73900000D01*
X132730953Y-73995238D01*
X132683334Y-74042857D01*
X132588096Y-74090476D01*
X132492858Y-74090476D01*
X132397620Y-74042857D01*
X132350001Y-73995238D01*
X132302381Y-73900000D01*
X132302381Y-73661904D01*
X132350001Y-73519047D01*
X133207143Y-72519047D02*
X133254762Y-72566666D01*
X133302381Y-72709523D01*
X133302381Y-72804761D01*
X133254762Y-72947619D01*
X133159524Y-73042857D01*
X133064286Y-73090476D01*
X132873810Y-73138095D01*
X132730953Y-73138095D01*
X132540477Y-73090476D01*
X132445239Y-73042857D01*
X132350001Y-72947619D01*
X132302381Y-72804761D01*
X132302381Y-72709523D01*
X132350001Y-72566666D01*
X132397620Y-72519047D01*
X133302381Y-71614285D02*
X133302381Y-72090476D01*
X132302381Y-72090476D01*
X129750001Y-73661904D02*
X129702381Y-73757142D01*
X129702381Y-73900000D01*
X129750001Y-74042857D01*
X129845239Y-74138095D01*
X129940477Y-74185714D01*
X130130953Y-74233333D01*
X130273810Y-74233333D01*
X130464286Y-74185714D01*
X130559524Y-74138095D01*
X130654762Y-74042857D01*
X130702381Y-73900000D01*
X130702381Y-73804761D01*
X130654762Y-73661904D01*
X130607143Y-73614285D01*
X130273810Y-73614285D01*
X130273810Y-73804761D01*
X130702381Y-73185714D02*
X129702381Y-73185714D01*
X130702381Y-72614285D01*
X129702381Y-72614285D01*
X130702381Y-72138095D02*
X129702381Y-72138095D01*
X129702381Y-71900000D01*
X129750001Y-71757142D01*
X129845239Y-71661904D01*
X129940477Y-71614285D01*
X130130953Y-71566666D01*
X130273810Y-71566666D01*
X130464286Y-71614285D01*
X130559524Y-71661904D01*
X130654762Y-71757142D01*
X130702381Y-71900000D01*
X130702381Y-72138095D01*
X127302381Y-74233333D02*
X128302381Y-73900000D01*
X127302381Y-73566666D01*
X128207143Y-72661904D02*
X128254762Y-72709523D01*
X128302381Y-72852380D01*
X128302381Y-72947619D01*
X128254762Y-73090476D01*
X128159524Y-73185714D01*
X128064286Y-73233333D01*
X127873810Y-73280952D01*
X127730953Y-73280952D01*
X127540477Y-73233333D01*
X127445239Y-73185714D01*
X127350001Y-73090476D01*
X127302381Y-72947619D01*
X127302381Y-72852380D01*
X127350001Y-72709523D01*
X127397620Y-72661904D01*
X128207143Y-71661904D02*
X128254762Y-71709523D01*
X128302381Y-71852380D01*
X128302381Y-71947619D01*
X128254762Y-72090476D01*
X128159524Y-72185714D01*
X128064286Y-72233333D01*
X127873810Y-72280952D01*
X127730953Y-72280952D01*
X127540477Y-72233333D01*
X127445239Y-72185714D01*
X127350001Y-72090476D01*
X127302381Y-71947619D01*
X127302381Y-71852380D01*
X127350001Y-71709523D01*
X127397620Y-71661904D01*
X118590477Y-71452380D02*
X119161905Y-71452380D01*
X118876191Y-72452380D02*
X118876191Y-71452380D01*
X119685715Y-71452380D02*
X119876191Y-71452380D01*
X119971429Y-71500000D01*
X120066667Y-71595238D01*
X120114286Y-71785714D01*
X120114286Y-72119047D01*
X120066667Y-72309523D01*
X119971429Y-72404761D01*
X119876191Y-72452380D01*
X119685715Y-72452380D01*
X119590477Y-72404761D01*
X119495239Y-72309523D01*
X119447620Y-72119047D01*
X119447620Y-71785714D01*
X119495239Y-71595238D01*
X119590477Y-71500000D01*
X119685715Y-71452380D01*
X120542858Y-72452380D02*
X120542858Y-71452380D01*
X120923810Y-71452380D01*
X121019048Y-71500000D01*
X121066667Y-71547619D01*
X121114286Y-71642857D01*
X121114286Y-71785714D01*
X121066667Y-71880952D01*
X121019048Y-71928571D01*
X120923810Y-71976190D01*
X120542858Y-71976190D01*
G04 #@! TO.C,U3*
X137452380Y-92011904D02*
X138261904Y-92011904D01*
X138357142Y-91964285D01*
X138404761Y-91916666D01*
X138452380Y-91821428D01*
X138452380Y-91630952D01*
X138404761Y-91535714D01*
X138357142Y-91488095D01*
X138261904Y-91440476D01*
X137452380Y-91440476D01*
X137452380Y-91059523D02*
X137452380Y-90440476D01*
X137833333Y-90773809D01*
X137833333Y-90630952D01*
X137880952Y-90535714D01*
X137928571Y-90488095D01*
X138023809Y-90440476D01*
X138261904Y-90440476D01*
X138357142Y-90488095D01*
X138404761Y-90535714D01*
X138452380Y-90630952D01*
X138452380Y-90916666D01*
X138404761Y-91011904D01*
X138357142Y-91059523D01*
G04 #@! TO.C,D1*
D10*
X121726190Y-103119047D02*
X121226190Y-103119047D01*
X121226190Y-103000000D01*
X121250000Y-102928571D01*
X121297619Y-102880952D01*
X121345238Y-102857142D01*
X121440476Y-102833333D01*
X121511904Y-102833333D01*
X121607142Y-102857142D01*
X121654761Y-102880952D01*
X121702380Y-102928571D01*
X121726190Y-103000000D01*
X121726190Y-103119047D01*
X121726190Y-102357142D02*
X121726190Y-102642857D01*
X121726190Y-102500000D02*
X121226190Y-102500000D01*
X121297619Y-102547619D01*
X121345238Y-102595238D01*
X121369047Y-102642857D01*
G04 #@! TO.C,D2*
X127226190Y-103119047D02*
X126726190Y-103119047D01*
X126726190Y-103000000D01*
X126750000Y-102928571D01*
X126797619Y-102880952D01*
X126845238Y-102857142D01*
X126940476Y-102833333D01*
X127011904Y-102833333D01*
X127107142Y-102857142D01*
X127154761Y-102880952D01*
X127202380Y-102928571D01*
X127226190Y-103000000D01*
X127226190Y-103119047D01*
X126773809Y-102642857D02*
X126750000Y-102619047D01*
X126726190Y-102571428D01*
X126726190Y-102452380D01*
X126750000Y-102404761D01*
X126773809Y-102380952D01*
X126821428Y-102357142D01*
X126869047Y-102357142D01*
X126940476Y-102380952D01*
X127226190Y-102666666D01*
X127226190Y-102357142D01*
G04 #@! TO.C,U4*
D14*
X142738095Y-85202380D02*
X142738095Y-86011904D01*
X142785714Y-86107142D01*
X142833333Y-86154761D01*
X142928571Y-86202380D01*
X143119047Y-86202380D01*
X143214285Y-86154761D01*
X143261904Y-86107142D01*
X143309523Y-86011904D01*
X143309523Y-85202380D01*
X144214285Y-85535714D02*
X144214285Y-86202380D01*
X143976190Y-85154761D02*
X143738095Y-85869047D01*
X144357142Y-85869047D01*
G04 #@! TO.C,J2*
D10*
X137226190Y-100186666D02*
X137583333Y-100186666D01*
X137654761Y-100210476D01*
X137702380Y-100258095D01*
X137726190Y-100329523D01*
X137726190Y-100377142D01*
X137273809Y-99972380D02*
X137250000Y-99948571D01*
X137226190Y-99900952D01*
X137226190Y-99781904D01*
X137250000Y-99734285D01*
X137273809Y-99710476D01*
X137321428Y-99686666D01*
X137369047Y-99686666D01*
X137440476Y-99710476D01*
X137726190Y-99996190D01*
X137726190Y-99686666D01*
G04 #@! TD*
M02*
