G04 #@! TF.GenerationSoftware,KiCad,Pcbnew,(5.0.0)*
G04 #@! TF.CreationDate,2020-03-15T13:15:32-04:00*
G04 #@! TF.ProjectId,Attiny_IMU_LCD_ETC,417474696E795F494D555F4C43445F45,rev?*
G04 #@! TF.SameCoordinates,Original*
G04 #@! TF.FileFunction,Soldermask,Top*
G04 #@! TF.FilePolarity,Negative*
%FSLAX46Y46*%
G04 Gerber Fmt 4.6, Leading zero omitted, Abs format (unit mm)*
G04 Created by KiCad (PCBNEW (5.0.0)) date 03/15/20 13:15:32*
%MOMM*%
%LPD*%
G01*
G04 APERTURE LIST*
%ADD10R,1.400000X1.650000*%
%ADD11O,1.400000X1.400000*%
%ADD12R,1.400000X1.400000*%
%ADD13R,1.700000X1.100000*%
%ADD14R,1.100000X1.700000*%
%ADD15O,2.600000X2.600000*%
%ADD16R,2.600000X2.600000*%
%ADD17C,2.400000*%
%ADD18O,4.900000X3.400000*%
%ADD19R,2.100000X2.100000*%
%ADD20O,2.100000X2.100000*%
%ADD21R,1.950000X1.000000*%
%ADD22C,2.900000*%
%ADD23R,1.600000X1.600000*%
%ADD24R,1.075000X0.650000*%
%ADD25R,0.650000X1.075000*%
G04 APERTURE END LIST*
D10*
G04 #@! TO.C,C1*
X131500000Y-87250000D03*
X133500000Y-87250000D03*
G04 #@! TD*
D11*
G04 #@! TO.C,J1*
X145020000Y-72460000D03*
X143750000Y-72460000D03*
X145020000Y-73730000D03*
X143750000Y-73730000D03*
X145020000Y-75000000D03*
X143750000Y-75000000D03*
X145020000Y-76270000D03*
X143750000Y-76270000D03*
X145020000Y-77540000D03*
D12*
X143750000Y-77540000D03*
G04 #@! TD*
D13*
G04 #@! TO.C,R1*
X135250000Y-75250000D03*
X135250000Y-77150000D03*
G04 #@! TD*
G04 #@! TO.C,R2*
X132750000Y-77200000D03*
X132750000Y-75300000D03*
G04 #@! TD*
D14*
G04 #@! TO.C,R3*
X125950000Y-90000000D03*
X124050000Y-90000000D03*
G04 #@! TD*
D15*
G04 #@! TO.C,SW1*
X126000000Y-99250000D03*
D16*
X118380000Y-99250000D03*
G04 #@! TD*
D17*
G04 #@! TO.C,SW2*
X136000000Y-98000000D03*
X136000000Y-102500000D03*
X129500000Y-98000000D03*
X129500000Y-102500000D03*
G04 #@! TD*
D18*
G04 #@! TO.C,U1*
X119900001Y-93000000D03*
X143400001Y-93000000D03*
X119900001Y-69500000D03*
X143400001Y-69500000D03*
D19*
X127850001Y-69700000D03*
D20*
X130390001Y-69700000D03*
X132930001Y-69700000D03*
X135470001Y-69700000D03*
G04 #@! TD*
D21*
G04 #@! TO.C,U3*
X129100000Y-89345000D03*
X129100000Y-90615000D03*
X129100000Y-91885000D03*
X129100000Y-93155000D03*
X136100000Y-93155000D03*
X136100000Y-91885000D03*
X136100000Y-90615000D03*
X136100000Y-89350000D03*
G04 #@! TD*
D22*
G04 #@! TO.C,U2*
X120250000Y-82750000D03*
X139750000Y-82750000D03*
G04 #@! TD*
D23*
G04 #@! TO.C,D1*
X118000000Y-102750000D03*
X120200000Y-102750000D03*
G04 #@! TD*
G04 #@! TO.C,D2*
X125600000Y-102750000D03*
X123400000Y-102750000D03*
G04 #@! TD*
D24*
G04 #@! TO.C,U4*
X144762500Y-87500000D03*
X144762500Y-88000000D03*
X144762500Y-88500000D03*
X144762500Y-89000000D03*
X142237500Y-89000000D03*
X142237500Y-88500000D03*
X142237500Y-88000000D03*
X142237500Y-87500000D03*
D25*
X144000000Y-89262500D03*
X143500000Y-89262500D03*
X143000000Y-89262500D03*
X144000000Y-87237500D03*
X143000000Y-87237500D03*
X143500000Y-87237500D03*
G04 #@! TD*
D20*
G04 #@! TO.C,J2*
X144580000Y-98750000D03*
X144580000Y-101290000D03*
X142040000Y-98750000D03*
X142040000Y-101290000D03*
X139500000Y-98750000D03*
D19*
X139500000Y-101290000D03*
G04 #@! TD*
M02*
